G04*
G04 #@! TF.GenerationSoftware,Altium Limited,Altium Designer,21.1.1 (26)*
G04*
G04 Layer_Color=16711935*
%FSLAX25Y25*%
%MOIN*%
G70*
G04*
G04 #@! TF.SameCoordinates,803D71E2-4EB1-4650-8D60-E64228E98B9D*
G04*
G04*
G04 #@! TF.FilePolarity,Positive*
G04*
G01*
G75*
%ADD20C,0.01000*%
%ADD22C,0.00591*%
D20*
X342520Y0D02*
X343495Y40D01*
X344464Y161D01*
X345419Y361D01*
X346355Y640D01*
X347264Y995D01*
X348141Y1424D01*
X348980Y1923D01*
X349774Y2490D01*
X350519Y3121D01*
X351209Y3812D01*
X351840Y4557D01*
X352407Y5351D01*
X352907Y6190D01*
X353336Y7067D01*
X353691Y7976D01*
X353969Y8912D01*
X354170Y9867D01*
X354290Y10836D01*
X354331Y11811D01*
X11811Y196850D02*
X10836Y196810D01*
X9867Y196689D01*
X8911Y196489D01*
X7976Y196210D01*
X7067Y195856D01*
X6190Y195427D01*
X5351Y194927D01*
X4556Y194360D01*
X3811Y193729D01*
X3121Y193039D01*
X2490Y192294D01*
X1923Y191499D01*
X1423Y190661D01*
X995Y189784D01*
X640Y188874D01*
X361Y187939D01*
X161Y186983D01*
X40Y186015D01*
X-0Y185039D01*
X-0Y11811D02*
X40Y10836D01*
X161Y9867D01*
X361Y8912D01*
X640Y7976D01*
X995Y7067D01*
X1423Y6190D01*
X1923Y5351D01*
X2490Y4557D01*
X3121Y3812D01*
X3811Y3121D01*
X4556Y2490D01*
X5351Y1923D01*
X6190Y1424D01*
X7067Y995D01*
X7976Y640D01*
X8912Y361D01*
X9867Y161D01*
X10836Y40D01*
X11811Y0D01*
X354331Y185039D02*
X354290Y186015D01*
X354170Y186983D01*
X353969Y187939D01*
X353691Y188874D01*
X353336Y189784D01*
X352907Y190661D01*
X352407Y191499D01*
X351840Y192294D01*
X351209Y193039D01*
X350519Y193729D01*
X349774Y194360D01*
X348980Y194927D01*
X348141Y195427D01*
X347264Y195856D01*
X346355Y196210D01*
X345419Y196489D01*
X344464Y196689D01*
X343495Y196810D01*
X342519Y196850D01*
X-0Y11811D02*
Y185039D01*
X11811Y196850D02*
X342520D01*
X11811Y0D02*
X342520D01*
X354331Y11811D02*
X354331Y185039D01*
D22*
X344488Y181102D02*
X344403Y182100D01*
X344151Y183070D01*
X343738Y183982D01*
X343177Y184812D01*
X342484Y185535D01*
X341679Y186131D01*
X340785Y186582D01*
X339827Y186875D01*
X338833Y187003D01*
X337832Y186960D01*
X336853Y186749D01*
X335924Y186375D01*
X335071Y185850D01*
X334319Y185189D01*
X333690Y184409D01*
X333201Y183535D01*
X332868Y182590D01*
X332698Y181603D01*
Y180602D01*
X332868Y179614D01*
X333201Y178670D01*
X333690Y177795D01*
X334319Y177016D01*
X335071Y176354D01*
X335924Y175829D01*
X336853Y175456D01*
X337832Y175245D01*
X338833Y175202D01*
X339827Y175329D01*
X340785Y175623D01*
X341679Y176074D01*
X342484Y176669D01*
X343177Y177392D01*
X343738Y178222D01*
X344151Y179135D01*
X344403Y180104D01*
X344488Y181102D01*
M02*
