G04*
G04 #@! TF.GenerationSoftware,Altium Limited,Altium Designer,21.1.1 (26)*
G04*
G04 Layer_Color=255*
%FSLAX25Y25*%
%MOIN*%
G70*
G04*
G04 #@! TF.SameCoordinates,803D71E2-4EB1-4650-8D60-E64228E98B9D*
G04*
G04*
G04 #@! TF.FilePolarity,Positive*
G04*
G01*
G75*
%ADD13C,0.03937*%
%ADD14R,0.05807X0.01181*%
%ADD15R,0.01181X0.05807*%
D13*
X270000Y113000D02*
D03*
X200000Y45000D02*
D03*
D14*
X213362Y94354D02*
D03*
Y92386D02*
D03*
Y90417D02*
D03*
Y88449D02*
D03*
Y86480D02*
D03*
Y84512D02*
D03*
Y82543D02*
D03*
Y80575D02*
D03*
Y78606D02*
D03*
Y76638D02*
D03*
Y74669D02*
D03*
Y72701D02*
D03*
Y70732D02*
D03*
Y68764D02*
D03*
Y66795D02*
D03*
Y64827D02*
D03*
X258543D02*
D03*
Y66795D02*
D03*
Y68764D02*
D03*
Y70732D02*
D03*
Y72701D02*
D03*
Y74669D02*
D03*
Y76638D02*
D03*
Y78606D02*
D03*
Y80575D02*
D03*
Y82543D02*
D03*
Y84512D02*
D03*
Y86480D02*
D03*
Y88449D02*
D03*
Y90417D02*
D03*
Y92386D02*
D03*
Y94354D02*
D03*
D15*
X221189Y57000D02*
D03*
X223158D02*
D03*
X225126D02*
D03*
X227095D02*
D03*
X229063D02*
D03*
X231031D02*
D03*
X233000D02*
D03*
X234968D02*
D03*
X236937D02*
D03*
X238906D02*
D03*
X240874D02*
D03*
X242843D02*
D03*
X244811D02*
D03*
X246779D02*
D03*
X248748D02*
D03*
X250716D02*
D03*
Y102181D02*
D03*
X248748D02*
D03*
X246779D02*
D03*
X244811D02*
D03*
X242843D02*
D03*
X240874D02*
D03*
X238906D02*
D03*
X236937D02*
D03*
X234968D02*
D03*
X233000D02*
D03*
X231031D02*
D03*
X229063D02*
D03*
X227095D02*
D03*
X225126D02*
D03*
X223158D02*
D03*
X221189D02*
D03*
M02*
