G04*
G04 #@! TF.GenerationSoftware,Altium Limited,Altium Designer,21.1.1 (26)*
G04*
G04 Layer_Color=8388736*
%FSLAX25Y25*%
%MOIN*%
G70*
G04*
G04 #@! TF.SameCoordinates,803D71E2-4EB1-4650-8D60-E64228E98B9D*
G04*
G04*
G04 #@! TF.FilePolarity,Negative*
G04*
G01*
G75*
%ADD16R,2.91339X0.01575*%
%ADD17C,0.11811*%
%ADD18R,0.06607X0.01981*%
%ADD19R,0.01981X0.06607*%
G36*
X314327Y165245D02*
X314349Y165136D01*
X314393Y164851D01*
Y164720D01*
X314415Y164611D01*
Y164523D01*
Y164501D01*
X314524Y163627D01*
X314874Y163670D01*
X315596D01*
X315946Y163627D01*
X316230Y163583D01*
X316471Y163561D01*
X316558Y163539D01*
X316624D01*
X316667Y163517D01*
X316689D01*
X317389Y163299D01*
X318045Y163036D01*
X318657Y162730D01*
X318942Y162577D01*
X319204Y162424D01*
X319445Y162271D01*
X319664Y162139D01*
X319839Y162008D01*
X319992Y161899D01*
X320123Y161811D01*
X320210Y161746D01*
X320276Y161702D01*
X320298Y161680D01*
X320691Y161374D01*
X321019Y161046D01*
X321304Y160718D01*
X321544Y160390D01*
X321741Y160127D01*
X321872Y159887D01*
X321916Y159799D01*
X321960Y159756D01*
X321982Y159712D01*
Y159690D01*
X322157Y159318D01*
X322288Y158924D01*
X322397Y158553D01*
X322485Y158203D01*
X322550Y157897D01*
X322594Y157678D01*
X322616Y157590D01*
X322638Y157525D01*
Y157481D01*
Y157459D01*
X322682Y156825D01*
X322703Y156541D01*
Y156278D01*
Y156060D01*
X322682Y155885D01*
Y155775D01*
Y155731D01*
X322572Y154988D01*
X322310Y154966D01*
X321741D01*
X321457Y155010D01*
X321216Y155032D01*
X321019Y155075D01*
X320888Y155097D01*
X320845D01*
X320451Y155185D01*
X320057Y155294D01*
X319292Y155557D01*
X318592Y155863D01*
X318264Y156016D01*
X317980Y156169D01*
X317717Y156344D01*
X317455Y156475D01*
X317258Y156628D01*
X317061Y156738D01*
X316930Y156847D01*
X316820Y156913D01*
X316755Y156956D01*
X316733Y156978D01*
X315661Y158006D01*
X315771Y157656D01*
X315880Y157328D01*
X315967Y157022D01*
X316055Y156738D01*
X316142Y156475D01*
X316208Y156235D01*
X316274Y156038D01*
X316339Y155841D01*
X316405Y155688D01*
X316449Y155535D01*
X316492Y155403D01*
X316514Y155316D01*
X316536Y155228D01*
X316558Y155185D01*
X316580Y155141D01*
X316777Y154572D01*
X316973Y154091D01*
X317170Y153654D01*
X317323Y153282D01*
X317455Y152998D01*
X317564Y152779D01*
X317630Y152648D01*
X317652Y152626D01*
Y152604D01*
X318198D01*
X318548Y152582D01*
X318898Y152539D01*
X319226Y152473D01*
X319532Y152385D01*
X320101Y152167D01*
X320341Y152057D01*
X320560Y151926D01*
X320779Y151795D01*
X320954Y151686D01*
X321107Y151554D01*
X321238Y151467D01*
X321347Y151379D01*
X321413Y151314D01*
X321457Y151270D01*
X321479Y151248D01*
X321719Y150986D01*
X321916Y150723D01*
X322113Y150439D01*
X322266Y150155D01*
X322397Y149892D01*
X322507Y149608D01*
X322660Y149105D01*
X322725Y148864D01*
X322769Y148646D01*
X322791Y148449D01*
X322813Y148296D01*
X322835Y148164D01*
Y148055D01*
Y147990D01*
Y147968D01*
X322813Y147618D01*
X322769Y147290D01*
X322703Y146962D01*
X322616Y146655D01*
X322397Y146109D01*
X322288Y145846D01*
X322157Y145628D01*
X322025Y145431D01*
X321916Y145234D01*
X321785Y145081D01*
X321697Y144950D01*
X321610Y144840D01*
X321544Y144775D01*
X321501Y144731D01*
X321479Y144709D01*
X321216Y144468D01*
X320954Y144272D01*
X320691Y144097D01*
X320407Y143944D01*
X320123Y143812D01*
X319860Y143703D01*
X319357Y143550D01*
X319117Y143484D01*
X318898Y143441D01*
X318701Y143419D01*
X318548Y143397D01*
X318417Y143375D01*
X318220D01*
X317870Y143397D01*
X317542Y143441D01*
X317214Y143506D01*
X316908Y143594D01*
X316361Y143790D01*
X316099Y143922D01*
X315880Y144053D01*
X315683Y144162D01*
X315486Y144293D01*
X315333Y144403D01*
X315202Y144512D01*
X315093Y144578D01*
X315027Y144643D01*
X314983Y144687D01*
X314962Y144709D01*
X314721Y144972D01*
X314524Y145234D01*
X314327Y145518D01*
X314174Y145781D01*
X314043Y146065D01*
X313934Y146327D01*
X313780Y146852D01*
X313715Y147071D01*
X313671Y147290D01*
X313649Y147486D01*
X313627Y147640D01*
X313605Y147793D01*
Y147880D01*
Y147946D01*
Y147968D01*
X313627Y148449D01*
X313715Y148886D01*
X313824Y149280D01*
X313955Y149630D01*
X314065Y149914D01*
X314174Y150133D01*
X314218Y150198D01*
X314262Y150264D01*
X314283Y150286D01*
Y150308D01*
X314546Y150680D01*
X314852Y151008D01*
X315136Y151314D01*
X315421Y151554D01*
X315661Y151751D01*
X315858Y151904D01*
X315989Y151992D01*
X316011Y152014D01*
X316033D01*
X315727Y152692D01*
X315443Y153370D01*
X315180Y154048D01*
X314940Y154660D01*
X314852Y154944D01*
X314765Y155185D01*
X314677Y155403D01*
X314612Y155600D01*
X314568Y155753D01*
X314524Y155885D01*
X314502Y155950D01*
Y155972D01*
X314262Y156781D01*
X314065Y157547D01*
X313890Y158268D01*
X313802Y158597D01*
X313737Y158903D01*
X313693Y159165D01*
X313627Y159428D01*
X313584Y159646D01*
X313562Y159821D01*
X313540Y159974D01*
X313518Y160084D01*
X313496Y160149D01*
Y160171D01*
X313278Y159515D01*
X313059Y158859D01*
X312556Y157503D01*
X312293Y156847D01*
X312031Y156191D01*
X311790Y155578D01*
X311528Y154988D01*
X311287Y154419D01*
X311069Y153916D01*
X310872Y153479D01*
X310697Y153085D01*
X310566Y152779D01*
X310500Y152648D01*
X310456Y152539D01*
X310413Y152451D01*
X310391Y152385D01*
X310369Y152364D01*
Y152342D01*
X310784Y152167D01*
X311134Y151992D01*
X311440Y151817D01*
X311681Y151664D01*
X311856Y151532D01*
X311987Y151423D01*
X312075Y151336D01*
X312097Y151314D01*
X311834Y150658D01*
X311637Y150045D01*
X311484Y149477D01*
X311397Y148974D01*
X311353Y148755D01*
X311331Y148558D01*
X311309Y148383D01*
Y148230D01*
X311287Y148121D01*
Y148033D01*
Y147990D01*
Y147968D01*
X311331Y147377D01*
X311419Y146787D01*
X311550Y146240D01*
X311703Y145715D01*
X311768Y145475D01*
X311834Y145256D01*
X311900Y145081D01*
X311965Y144906D01*
X312031Y144775D01*
X312053Y144687D01*
X312097Y144622D01*
Y144600D01*
X311856Y144381D01*
X311594Y144206D01*
X311353Y144031D01*
X311069Y143900D01*
X310544Y143681D01*
X310063Y143528D01*
X309822Y143484D01*
X309625Y143441D01*
X309428Y143419D01*
X309275Y143397D01*
X309122Y143375D01*
X308947D01*
X308597Y143397D01*
X308269Y143441D01*
X307941Y143506D01*
X307657Y143594D01*
X307088Y143790D01*
X306848Y143922D01*
X306629Y144053D01*
X306410Y144162D01*
X306235Y144293D01*
X306082Y144403D01*
X305951Y144512D01*
X305842Y144578D01*
X305776Y144643D01*
X305732Y144687D01*
X305710Y144709D01*
X305470Y144972D01*
X305273Y145234D01*
X305098Y145518D01*
X304945Y145781D01*
X304814Y146065D01*
X304704Y146327D01*
X304551Y146830D01*
X304486Y147049D01*
X304442Y147268D01*
X304420Y147443D01*
X304398Y147618D01*
X304376Y147749D01*
Y147836D01*
Y147902D01*
Y147924D01*
X304398Y148274D01*
X304420Y148602D01*
X304573Y149214D01*
X304748Y149761D01*
X304857Y150002D01*
X304989Y150220D01*
X305098Y150417D01*
X305207Y150592D01*
X305295Y150745D01*
X305382Y150855D01*
X305470Y150964D01*
X305536Y151030D01*
X305557Y151073D01*
X305579Y151095D01*
X305820Y151336D01*
X306060Y151532D01*
X306301Y151707D01*
X306563Y151882D01*
X307045Y152145D01*
X307526Y152342D01*
X307919Y152473D01*
X308094Y152517D01*
X308247Y152560D01*
X308357Y152582D01*
X308466D01*
X308510Y152604D01*
X308532D01*
X309057Y153741D01*
X309297Y154288D01*
X309538Y154813D01*
X309735Y155316D01*
X309953Y155797D01*
X310128Y156235D01*
X310303Y156650D01*
X310456Y157022D01*
X310609Y157372D01*
X310719Y157656D01*
X310828Y157919D01*
X310894Y158115D01*
X310959Y158247D01*
X310981Y158356D01*
X311003Y158378D01*
X311309Y159187D01*
X311550Y159952D01*
X311790Y160674D01*
X311987Y161352D01*
X312140Y161964D01*
X312271Y162511D01*
X312381Y163036D01*
X312468Y163495D01*
X312556Y163911D01*
X312599Y164261D01*
X312643Y164545D01*
X312665Y164808D01*
X312687Y165004D01*
Y165136D01*
Y165223D01*
Y165245D01*
X314305Y165354D01*
X314327Y165245D01*
D02*
G37*
G36*
X346457Y21696D02*
X339546D01*
Y28607D01*
X346457D01*
Y21696D01*
D02*
G37*
G36*
X337228D02*
X334953D01*
Y26289D01*
X337228D01*
Y21696D01*
D02*
G37*
G36*
X332635D02*
X325724D01*
Y28607D01*
X332635D01*
Y21696D01*
D02*
G37*
G36*
X341864Y17103D02*
X339546D01*
Y19378D01*
X341864D01*
Y17103D01*
D02*
G37*
G36*
X328042D02*
X325724D01*
Y19378D01*
X328042D01*
Y17103D01*
D02*
G37*
G36*
X337228Y14785D02*
X334953D01*
Y17103D01*
X332635D01*
Y19378D01*
X337228D01*
Y14785D01*
D02*
G37*
G36*
X346457Y10192D02*
X344139D01*
Y7874D01*
X341864D01*
Y10192D01*
X344139D01*
Y14785D01*
X346457D01*
Y10192D01*
D02*
G37*
G36*
Y17103D02*
X344139D01*
Y14785D01*
X341864D01*
Y10192D01*
X337228D01*
Y7874D01*
X334953D01*
Y12467D01*
X339546D01*
Y14785D01*
X341864D01*
Y17103D01*
X344139D01*
Y19378D01*
X346457D01*
Y17103D01*
D02*
G37*
G36*
X332635Y7874D02*
X325724D01*
Y14785D01*
X332635D01*
Y7874D01*
D02*
G37*
G36*
X172886Y162621D02*
X158276D01*
Y165004D01*
X172886D01*
Y162621D01*
D02*
G37*
G36*
X106007Y162621D02*
X91398D01*
Y165004D01*
X106007D01*
Y162621D01*
D02*
G37*
G36*
X127112Y165332D02*
X127374Y165311D01*
X127680Y165267D01*
X128008Y165223D01*
X128380Y165157D01*
X128774Y165070D01*
X129189Y164983D01*
X129605Y164851D01*
X130042Y164698D01*
X130480Y164523D01*
X130895Y164305D01*
X131311Y164086D01*
X131704Y163802D01*
X131726Y163780D01*
X131792Y163736D01*
X131901Y163648D01*
X132032Y163517D01*
X132207Y163364D01*
X132404Y163167D01*
X132601Y162949D01*
X132842Y162686D01*
X133082Y162402D01*
X133323Y162074D01*
X133563Y161724D01*
X133782Y161330D01*
X134023Y160915D01*
X134220Y160456D01*
X134416Y159974D01*
X134591Y159471D01*
X131967Y158859D01*
Y158881D01*
X131923Y158946D01*
X131901Y159078D01*
X131836Y159231D01*
X131770Y159406D01*
X131661Y159602D01*
X131442Y160084D01*
X131158Y160609D01*
X130786Y161155D01*
X130392Y161658D01*
X130152Y161877D01*
X129911Y162074D01*
X129889Y162096D01*
X129845Y162118D01*
X129780Y162161D01*
X129671Y162227D01*
X129539Y162314D01*
X129386Y162402D01*
X129211Y162489D01*
X128992Y162577D01*
X128752Y162664D01*
X128511Y162752D01*
X127943Y162927D01*
X127287Y163036D01*
X126937Y163080D01*
X126346D01*
X126171Y163058D01*
X125975Y163036D01*
X125734Y163014D01*
X125471Y162992D01*
X125209Y162949D01*
X124575Y162796D01*
X123919Y162599D01*
X123591Y162468D01*
X123263Y162314D01*
X122956Y162139D01*
X122650Y161943D01*
X122628Y161921D01*
X122585Y161899D01*
X122497Y161833D01*
X122388Y161746D01*
X122278Y161636D01*
X122125Y161483D01*
X121972Y161330D01*
X121797Y161155D01*
X121622Y160937D01*
X121425Y160718D01*
X121076Y160215D01*
X120747Y159624D01*
X120463Y158946D01*
Y158925D01*
X120441Y158859D01*
X120398Y158750D01*
X120376Y158618D01*
X120332Y158443D01*
X120266Y158247D01*
X120223Y158006D01*
X120157Y157765D01*
X120091Y157481D01*
X120048Y157175D01*
X119938Y156519D01*
X119873Y155819D01*
X119851Y155076D01*
Y155054D01*
Y154966D01*
Y154835D01*
X119873Y154638D01*
Y154419D01*
X119895Y154157D01*
X119916Y153873D01*
X119938Y153545D01*
X119982Y153195D01*
X120026Y152845D01*
X120157Y152079D01*
X120354Y151314D01*
X120594Y150570D01*
Y150548D01*
X120638Y150483D01*
X120682Y150395D01*
X120726Y150264D01*
X120813Y150089D01*
X120923Y149914D01*
X121163Y149499D01*
X121491Y149018D01*
X121885Y148558D01*
X122366Y148099D01*
X122628Y147902D01*
X122913Y147705D01*
X122934D01*
X122978Y147661D01*
X123066Y147618D01*
X123197Y147552D01*
X123350Y147487D01*
X123525Y147399D01*
X123722Y147334D01*
X123941Y147246D01*
X124444Y147071D01*
X125034Y146918D01*
X125668Y146809D01*
X125996Y146787D01*
X126346Y146765D01*
X126565D01*
X126718Y146787D01*
X126915Y146809D01*
X127134Y146830D01*
X127396Y146874D01*
X127658Y146918D01*
X128271Y147071D01*
X128577Y147180D01*
X128905Y147312D01*
X129233Y147465D01*
X129539Y147640D01*
X129845Y147836D01*
X130152Y148055D01*
X130174Y148077D01*
X130217Y148121D01*
X130305Y148186D01*
X130414Y148296D01*
X130523Y148427D01*
X130676Y148602D01*
X130830Y148799D01*
X131005Y149018D01*
X131179Y149280D01*
X131354Y149564D01*
X131529Y149870D01*
X131704Y150220D01*
X131858Y150592D01*
X132011Y151008D01*
X132164Y151445D01*
X132273Y151904D01*
X134941Y151226D01*
Y151183D01*
X134897Y151073D01*
X134854Y150920D01*
X134766Y150680D01*
X134679Y150417D01*
X134547Y150089D01*
X134416Y149739D01*
X134241Y149367D01*
X134045Y148952D01*
X133826Y148558D01*
X133585Y148121D01*
X133301Y147705D01*
X132995Y147312D01*
X132667Y146918D01*
X132295Y146546D01*
X131901Y146196D01*
X131879Y146174D01*
X131792Y146131D01*
X131683Y146043D01*
X131508Y145934D01*
X131311Y145803D01*
X131048Y145650D01*
X130764Y145496D01*
X130414Y145343D01*
X130042Y145190D01*
X129649Y145037D01*
X129211Y144884D01*
X128730Y144753D01*
X128227Y144643D01*
X127702Y144556D01*
X127155Y144512D01*
X126565Y144490D01*
X126259D01*
X126018Y144512D01*
X125756Y144534D01*
X125428Y144556D01*
X125078Y144600D01*
X124684Y144665D01*
X124269Y144731D01*
X123831Y144818D01*
X123394Y144928D01*
X122956Y145037D01*
X122497Y145190D01*
X122060Y145365D01*
X121644Y145562D01*
X121250Y145803D01*
X121229Y145824D01*
X121163Y145868D01*
X121054Y145934D01*
X120923Y146043D01*
X120747Y146196D01*
X120551Y146349D01*
X120332Y146546D01*
X120091Y146787D01*
X119851Y147049D01*
X119588Y147334D01*
X119348Y147640D01*
X119085Y147990D01*
X118823Y148361D01*
X118582Y148755D01*
X118364Y149192D01*
X118145Y149652D01*
X118123Y149674D01*
X118101Y149761D01*
X118058Y149914D01*
X117992Y150089D01*
X117904Y150330D01*
X117817Y150592D01*
X117729Y150920D01*
X117620Y151270D01*
X117533Y151664D01*
X117423Y152079D01*
X117336Y152517D01*
X117270Y152998D01*
X117139Y154004D01*
X117117Y154529D01*
X117095Y155054D01*
Y155097D01*
Y155185D01*
Y155360D01*
X117117Y155578D01*
X117139Y155863D01*
X117161Y156191D01*
X117205Y156541D01*
X117248Y156934D01*
X117314Y157350D01*
X117379Y157787D01*
X117598Y158728D01*
X117751Y159187D01*
X117904Y159646D01*
X118079Y160127D01*
X118298Y160565D01*
X118320Y160587D01*
X118364Y160674D01*
X118429Y160784D01*
X118517Y160959D01*
X118648Y161155D01*
X118801Y161374D01*
X118976Y161615D01*
X119173Y161899D01*
X119413Y162161D01*
X119654Y162468D01*
X119938Y162752D01*
X120245Y163058D01*
X120573Y163342D01*
X120923Y163627D01*
X121316Y163889D01*
X121710Y164130D01*
X121732Y164152D01*
X121819Y164173D01*
X121929Y164239D01*
X122104Y164327D01*
X122300Y164414D01*
X122563Y164523D01*
X122847Y164633D01*
X123153Y164742D01*
X123503Y164851D01*
X123897Y164961D01*
X124291Y165070D01*
X124728Y165157D01*
X125625Y165311D01*
X126106Y165332D01*
X126609Y165354D01*
X126893D01*
X127112Y165332D01*
D02*
G37*
G36*
X154143Y144818D02*
X151475D01*
Y154332D01*
X140999D01*
Y144818D01*
X138331D01*
Y165004D01*
X140999D01*
Y156716D01*
X151475D01*
Y165004D01*
X154143D01*
Y144818D01*
D02*
G37*
G36*
X171573Y153719D02*
X159589D01*
Y156103D01*
X171573D01*
Y153719D01*
D02*
G37*
G36*
X104695Y153719D02*
X92710D01*
Y156103D01*
X104695D01*
Y153719D01*
D02*
G37*
G36*
X192787Y144818D02*
X190032D01*
X179447Y160652D01*
Y144818D01*
X176888D01*
Y165004D01*
X179622D01*
X190228Y149149D01*
Y165004D01*
X192787D01*
Y144818D01*
D02*
G37*
G36*
X81425Y144818D02*
X78670D01*
X70840Y165004D01*
X73749D01*
X78998Y150330D01*
Y150308D01*
X79020Y150242D01*
X79063Y150155D01*
X79107Y150023D01*
X79151Y149870D01*
X79216Y149695D01*
X79282Y149499D01*
X79369Y149258D01*
X79523Y148755D01*
X79698Y148208D01*
X79873Y147618D01*
X80048Y147027D01*
Y147049D01*
X80069Y147093D01*
X80091Y147202D01*
X80135Y147312D01*
X80179Y147465D01*
X80222Y147640D01*
X80288Y147836D01*
X80354Y148055D01*
X80507Y148558D01*
X80704Y149127D01*
X80922Y149717D01*
X81141Y150330D01*
X86587Y165004D01*
X89298D01*
X81425Y144818D01*
D02*
G37*
G36*
X173235Y144818D02*
X157926D01*
Y147202D01*
X173235D01*
Y144818D01*
D02*
G37*
G36*
X106357Y144818D02*
X91048D01*
Y147202D01*
X106357D01*
Y144818D01*
D02*
G37*
G36*
X70468D02*
X67560D01*
X62333Y159449D01*
Y159471D01*
X62311Y159537D01*
X62267Y159624D01*
X62223Y159777D01*
X62158Y159931D01*
X62092Y160127D01*
X62027Y160346D01*
X61939Y160565D01*
X61764Y161090D01*
X61589Y161636D01*
X61414Y162183D01*
X61261Y162730D01*
Y162708D01*
X61239Y162664D01*
X61217Y162577D01*
X61174Y162446D01*
X61152Y162293D01*
X61086Y162118D01*
X61021Y161921D01*
X60955Y161702D01*
X60802Y161221D01*
X60627Y160674D01*
X60408Y160084D01*
X60189Y159471D01*
X54766Y144818D01*
X52032D01*
X59905Y165004D01*
X62661Y165004D01*
X70468Y144818D01*
D02*
G37*
G36*
X41469Y164982D02*
X41709D01*
X41994Y164961D01*
X42562Y164939D01*
X43153Y164873D01*
X43743Y164808D01*
X44006Y164742D01*
X44246Y164698D01*
X44268D01*
X44334Y164676D01*
X44421Y164655D01*
X44531Y164611D01*
X44684Y164567D01*
X44859Y164523D01*
X45274Y164370D01*
X45733Y164173D01*
X46215Y163933D01*
X46718Y163627D01*
X47199Y163255D01*
X47221Y163233D01*
X47264Y163189D01*
X47352Y163124D01*
X47461Y163014D01*
X47592Y162883D01*
X47745Y162708D01*
X47920Y162533D01*
X48095Y162314D01*
X48292Y162074D01*
X48489Y161811D01*
X48686Y161527D01*
X48883Y161221D01*
X49255Y160543D01*
X49582Y159799D01*
Y159777D01*
X49626Y159712D01*
X49648Y159581D01*
X49714Y159428D01*
X49779Y159231D01*
X49845Y158990D01*
X49911Y158728D01*
X49998Y158422D01*
X50064Y158072D01*
X50129Y157700D01*
X50195Y157306D01*
X50261Y156891D01*
X50326Y156453D01*
X50348Y155994D01*
X50392Y155010D01*
Y154966D01*
Y154879D01*
Y154704D01*
X50370Y154485D01*
Y154223D01*
X50348Y153916D01*
X50304Y153566D01*
X50261Y153195D01*
X50217Y152779D01*
X50151Y152364D01*
X49976Y151467D01*
X49736Y150570D01*
X49582Y150133D01*
X49408Y149695D01*
Y149673D01*
X49364Y149608D01*
X49298Y149477D01*
X49233Y149346D01*
X49145Y149149D01*
X49014Y148952D01*
X48752Y148471D01*
X48402Y147946D01*
X47986Y147399D01*
X47549Y146918D01*
X47308Y146677D01*
X47046Y146481D01*
X47024D01*
X46980Y146437D01*
X46914Y146393D01*
X46805Y146327D01*
X46674Y146240D01*
X46521Y146131D01*
X46346Y146043D01*
X46149Y145934D01*
X45690Y145693D01*
X45165Y145453D01*
X44552Y145234D01*
X43918Y145037D01*
X43874D01*
X43809Y145015D01*
X43743Y144993D01*
X43634D01*
X43503Y144972D01*
X43371Y144950D01*
X43196Y144928D01*
X43000Y144906D01*
X42781Y144884D01*
X42540Y144862D01*
X42278D01*
X41994Y144840D01*
X41688Y144818D01*
X33705D01*
Y154004D01*
X31496D01*
Y155819D01*
X33705D01*
Y165004D01*
X41250D01*
X41469Y164982D01*
D02*
G37*
%LPC*%
G36*
X318198Y150876D02*
X317783Y150833D01*
X317389Y150745D01*
X317039Y150614D01*
X316733Y150461D01*
X316492Y150286D01*
X316317Y150155D01*
X316208Y150067D01*
X316164Y150023D01*
X315880Y149695D01*
X315683Y149346D01*
X315530Y149017D01*
X315443Y148689D01*
X315377Y148405D01*
X315355Y148164D01*
X315333Y148077D01*
Y148033D01*
Y147990D01*
Y147968D01*
X316471D01*
X316492Y148230D01*
X316558Y148449D01*
X316645Y148646D01*
X316733Y148843D01*
X316820Y148974D01*
X316908Y149083D01*
X316973Y149149D01*
X316995Y149170D01*
X317214Y149346D01*
X317411Y149477D01*
X317608Y149564D01*
X317805Y149630D01*
X317958Y149673D01*
X318089Y149695D01*
X318198D01*
Y150876D01*
D02*
G37*
G36*
X309013D02*
X308575Y150833D01*
X308160Y150745D01*
X307810Y150614D01*
X307504Y150461D01*
X307263Y150286D01*
X307088Y150155D01*
X306979Y150067D01*
X306935Y150023D01*
X306651Y149695D01*
X306454Y149346D01*
X306301Y149017D01*
X306213Y148689D01*
X306148Y148405D01*
X306126Y148164D01*
X306104Y148077D01*
Y148033D01*
Y147990D01*
Y147968D01*
X307285D01*
X307307Y148230D01*
X307373Y148449D01*
X307438Y148646D01*
X307547Y148843D01*
X307635Y148974D01*
X307701Y149083D01*
X307766Y149149D01*
X307788Y149170D01*
X307985Y149346D01*
X308204Y149477D01*
X308401Y149564D01*
X308597Y149630D01*
X308772Y149673D01*
X308904Y149695D01*
X309013D01*
Y150876D01*
D02*
G37*
G36*
X344139Y26289D02*
X341864D01*
Y24014D01*
X344139D01*
Y26289D01*
D02*
G37*
G36*
X330317D02*
X328042D01*
Y24014D01*
X330317D01*
Y26289D01*
D02*
G37*
G36*
Y12467D02*
X328042D01*
Y10192D01*
X330317D01*
Y12467D01*
D02*
G37*
G36*
X40988Y162621D02*
X36373D01*
Y155819D01*
X41950D01*
Y154004D01*
X36373D01*
Y147202D01*
X41010D01*
X41184Y147224D01*
X41381D01*
X41819Y147246D01*
X42322Y147290D01*
X42847Y147355D01*
X43350Y147443D01*
X43809Y147552D01*
X43831D01*
X43853Y147574D01*
X43918Y147596D01*
X44006Y147618D01*
X44203Y147705D01*
X44465Y147815D01*
X44749Y147968D01*
X45055Y148143D01*
X45340Y148361D01*
X45602Y148602D01*
X45624Y148624D01*
X45646Y148646D01*
X45755Y148777D01*
X45930Y148974D01*
X46149Y149280D01*
X46389Y149630D01*
X46630Y150067D01*
X46871Y150570D01*
X47089Y151139D01*
Y151161D01*
X47111Y151204D01*
X47133Y151292D01*
X47177Y151423D01*
X47221Y151576D01*
X47264Y151773D01*
X47308Y151992D01*
X47374Y152232D01*
X47417Y152495D01*
X47461Y152801D01*
X47505Y153107D01*
X47549Y153457D01*
X47614Y154201D01*
X47636Y155032D01*
Y155054D01*
Y155141D01*
Y155272D01*
Y155425D01*
X47614Y155622D01*
Y155863D01*
X47592Y156125D01*
X47570Y156410D01*
X47505Y157000D01*
X47396Y157634D01*
X47264Y158247D01*
X47177Y158553D01*
X47089Y158815D01*
Y158837D01*
X47067Y158881D01*
X47046Y158946D01*
X47002Y159056D01*
X46871Y159318D01*
X46718Y159624D01*
X46521Y159996D01*
X46280Y160368D01*
X46018Y160740D01*
X45712Y161090D01*
X45668Y161133D01*
X45559Y161221D01*
X45384Y161374D01*
X45165Y161549D01*
X44881Y161746D01*
X44552Y161943D01*
X44203Y162118D01*
X43809Y162271D01*
X43787D01*
X43765Y162293D01*
X43699Y162314D01*
X43612Y162336D01*
X43503Y162358D01*
X43371Y162380D01*
X43196Y162424D01*
X43022Y162446D01*
X42803Y162489D01*
X42562Y162511D01*
X42300Y162533D01*
X42015Y162577D01*
X41688Y162599D01*
X41359D01*
X40988Y162621D01*
D02*
G37*
%LPD*%
D16*
X177165Y138583D02*
D03*
D17*
X270000Y113000D02*
D03*
X200000Y45000D02*
D03*
D18*
X213362Y94354D02*
D03*
Y92386D02*
D03*
Y90417D02*
D03*
Y88449D02*
D03*
Y86480D02*
D03*
Y84512D02*
D03*
Y82543D02*
D03*
Y80575D02*
D03*
Y78606D02*
D03*
Y76638D02*
D03*
Y74669D02*
D03*
Y72701D02*
D03*
Y70732D02*
D03*
Y68764D02*
D03*
Y66795D02*
D03*
Y64827D02*
D03*
X258543D02*
D03*
Y66795D02*
D03*
Y68764D02*
D03*
Y70732D02*
D03*
Y72701D02*
D03*
Y74669D02*
D03*
Y76638D02*
D03*
Y78606D02*
D03*
Y80575D02*
D03*
Y82543D02*
D03*
Y84512D02*
D03*
Y86480D02*
D03*
Y88449D02*
D03*
Y90417D02*
D03*
Y92386D02*
D03*
Y94354D02*
D03*
D19*
X221189Y57000D02*
D03*
X223158D02*
D03*
X225126D02*
D03*
X227095D02*
D03*
X229063D02*
D03*
X231031D02*
D03*
X233000D02*
D03*
X234968D02*
D03*
X236937D02*
D03*
X238906D02*
D03*
X240874D02*
D03*
X242843D02*
D03*
X244811D02*
D03*
X246779D02*
D03*
X248748D02*
D03*
X250716D02*
D03*
Y102181D02*
D03*
X248748D02*
D03*
X246779D02*
D03*
X244811D02*
D03*
X242843D02*
D03*
X240874D02*
D03*
X238906D02*
D03*
X236937D02*
D03*
X234968D02*
D03*
X233000D02*
D03*
X231031D02*
D03*
X229063D02*
D03*
X227095D02*
D03*
X225126D02*
D03*
X223158D02*
D03*
X221189D02*
D03*
M02*
