G04*
G04 #@! TF.GenerationSoftware,Altium Limited,Altium Designer,21.1.1 (26)*
G04*
G04 Layer_Physical_Order=2*
G04 Layer_Color=16711680*
%FSLAX25Y25*%
%MOIN*%
G70*
G04*
G04 #@! TF.SameCoordinates,803D71E2-4EB1-4650-8D60-E64228E98B9D*
G04*
G04*
G04 #@! TF.FilePolarity,Positive*
G04*
G01*
G75*
%ADD20C,0.01000*%
%ADD21C,0.05000*%
G36*
X347000Y21822D02*
X340089D01*
Y28733D01*
X347000D01*
Y21822D01*
D02*
G37*
G36*
X337771D02*
X335496D01*
Y26414D01*
X337771D01*
Y21822D01*
D02*
G37*
G36*
X333178D02*
X326267D01*
Y28733D01*
X333178D01*
Y21822D01*
D02*
G37*
G36*
X347000Y17229D02*
X344682D01*
Y19504D01*
X347000D01*
Y17229D01*
D02*
G37*
G36*
X328586D02*
X326267D01*
Y19504D01*
X328586D01*
Y17229D01*
D02*
G37*
G36*
X340089D02*
X337771D01*
Y14911D01*
X335496D01*
Y19504D01*
X340089D01*
Y17229D01*
D02*
G37*
G36*
X333178D02*
X330860D01*
Y14911D01*
X328586D01*
Y10318D01*
X326267D01*
Y14911D01*
X328586D01*
Y17229D01*
X330860D01*
Y19504D01*
X333178D01*
Y17229D01*
D02*
G37*
G36*
X347000Y8000D02*
X340089D01*
Y14911D01*
X347000D01*
Y8000D01*
D02*
G37*
G36*
X333178Y12593D02*
X337771D01*
Y8000D01*
X335496D01*
Y10318D01*
X330860D01*
Y8000D01*
X328586D01*
Y10318D01*
X330860D01*
Y14911D01*
X333178D01*
Y12593D01*
D02*
G37*
G36*
X50499Y183989D02*
X45021D01*
Y184882D01*
X50499D01*
Y183989D01*
D02*
G37*
G36*
X18937Y183825D02*
X18010D01*
Y184882D01*
X18937D01*
Y183825D01*
D02*
G37*
G36*
X50007Y180651D02*
X45513D01*
Y181545D01*
X50007D01*
Y180651D01*
D02*
G37*
G36*
X92081Y177314D02*
X91121D01*
Y183251D01*
X87153Y177314D01*
X86119D01*
Y184882D01*
X87079D01*
Y178938D01*
X91056Y184882D01*
X92081D01*
Y177314D01*
D02*
G37*
G36*
X75082D02*
X74115D01*
Y183759D01*
X71933Y177314D01*
X71031D01*
X68817Y183652D01*
Y177314D01*
X67850D01*
Y184882D01*
X69203D01*
X71023Y179618D01*
X71072Y179471D01*
X71122Y179339D01*
X71163Y179208D01*
X71204Y179093D01*
X71236Y178979D01*
X71269Y178880D01*
X71302Y178790D01*
X71327Y178708D01*
X71351Y178642D01*
X71368Y178577D01*
X71384Y178527D01*
X71400Y178478D01*
X71409Y178446D01*
X71417Y178421D01*
X71425Y178413D01*
Y178404D01*
X71450Y178478D01*
X71474Y178560D01*
X71532Y178733D01*
X71589Y178921D01*
X71646Y179102D01*
X71704Y179266D01*
X71728Y179339D01*
X71745Y179397D01*
X71761Y179446D01*
X71778Y179487D01*
X71786Y179512D01*
Y179520D01*
X73582Y184882D01*
X75082D01*
Y177314D01*
D02*
G37*
G36*
X107800Y177314D02*
X106759D01*
X105168Y183079D01*
X105127Y183218D01*
X105086Y183366D01*
X105045Y183521D01*
X105012Y183661D01*
X104979Y183776D01*
X104971Y183833D01*
X104963Y183874D01*
X104947Y183915D01*
Y183940D01*
X104938Y183956D01*
Y183964D01*
X104930Y183931D01*
X104914Y183882D01*
X104897Y183825D01*
X104881Y183759D01*
X104840Y183612D01*
X104799Y183464D01*
X104758Y183316D01*
X104742Y183251D01*
X104725Y183193D01*
X104709Y183144D01*
X104701Y183111D01*
X104692Y183087D01*
Y183079D01*
X103110Y177314D01*
X102134D01*
X100059Y184883D01*
X101068D01*
X102257Y180012D01*
X102339Y179676D01*
X102413Y179364D01*
X102446Y179225D01*
X102478Y179085D01*
X102503Y178962D01*
X102528Y178847D01*
X102552Y178741D01*
X102577Y178651D01*
X102593Y178569D01*
X102610Y178495D01*
X102618Y178446D01*
X102626Y178405D01*
X102634Y178380D01*
Y178372D01*
X102716Y178847D01*
X102806Y179315D01*
X102856Y179544D01*
X102905Y179766D01*
X102954Y179979D01*
X103003Y180176D01*
X103052Y180364D01*
X103093Y180528D01*
X103134Y180676D01*
X103167Y180799D01*
X103192Y180906D01*
X103216Y180979D01*
X103225Y181029D01*
X103233Y181045D01*
X104307Y184883D01*
X105512D01*
X106956Y179766D01*
X106972Y179717D01*
X106988Y179651D01*
X107005Y179569D01*
X107029Y179471D01*
X107062Y179356D01*
X107087Y179241D01*
X107152Y178995D01*
X107177Y178880D01*
X107210Y178765D01*
X107234Y178659D01*
X107251Y178560D01*
X107275Y178487D01*
X107284Y178421D01*
X107300Y178388D01*
Y178372D01*
X107349Y178659D01*
X107407Y178938D01*
X107456Y179192D01*
X107480Y179315D01*
X107505Y179430D01*
X107530Y179536D01*
X107554Y179626D01*
X107571Y179708D01*
X107587Y179782D01*
X107603Y179840D01*
X107612Y179881D01*
X107620Y179905D01*
Y179913D01*
X108760Y184883D01*
X109793D01*
X107800Y177314D01*
D02*
G37*
G36*
X33484Y184153D02*
Y182800D01*
X34172D01*
Y182078D01*
X33484D01*
Y178913D01*
Y178765D01*
X33475Y178626D01*
Y178503D01*
X33467Y178388D01*
X33459Y178290D01*
X33451Y178200D01*
X33443Y178118D01*
X33426Y178052D01*
X33418Y177995D01*
X33410Y177945D01*
X33402Y177904D01*
X33393Y177872D01*
X33385Y177831D01*
X33377Y177814D01*
X33328Y177724D01*
X33270Y177642D01*
X33205Y177568D01*
X33139Y177511D01*
X33074Y177462D01*
X33024Y177429D01*
X32992Y177404D01*
X32983Y177396D01*
X32869Y177347D01*
X32746Y177306D01*
X32614Y177281D01*
X32483Y177257D01*
X32368Y177248D01*
X32278Y177240D01*
X32196D01*
X31950Y177257D01*
X31835Y177265D01*
X31729Y177281D01*
X31630Y177297D01*
X31557Y177306D01*
X31507Y177322D01*
X31491D01*
X31614Y178142D01*
X31704Y178134D01*
X31786Y178126D01*
X31860Y178118D01*
X31917D01*
X31967Y178109D01*
X32106D01*
X32172Y178118D01*
X32221Y178134D01*
X32270Y178142D01*
X32303Y178158D01*
X32327Y178167D01*
X32344Y178175D01*
X32352D01*
X32418Y178232D01*
X32467Y178290D01*
X32500Y178339D01*
X32508Y178347D01*
Y178355D01*
X32524Y178413D01*
X32532Y178487D01*
X32549Y178568D01*
Y178650D01*
X32557Y178733D01*
Y178798D01*
Y178847D01*
Y178856D01*
Y178864D01*
Y182078D01*
X31614D01*
Y182800D01*
X32557D01*
Y184710D01*
X33484Y184153D01*
D02*
G37*
G36*
X30728Y179397D02*
Y179192D01*
X30720Y179011D01*
X30712Y178864D01*
X30704Y178741D01*
X30696Y178650D01*
X30687Y178577D01*
X30679Y178544D01*
Y178527D01*
X30638Y178380D01*
X30597Y178249D01*
X30548Y178134D01*
X30499Y178035D01*
X30458Y177954D01*
X30425Y177888D01*
X30400Y177855D01*
X30392Y177839D01*
X30310Y177740D01*
X30212Y177650D01*
X30105Y177568D01*
X30007Y177503D01*
X29908Y177445D01*
X29835Y177404D01*
X29785Y177380D01*
X29777Y177371D01*
X29769D01*
X29605Y177314D01*
X29449Y177265D01*
X29293Y177232D01*
X29154Y177216D01*
X29031Y177199D01*
X28941Y177191D01*
X28859D01*
X28654Y177199D01*
X28465Y177232D01*
X28293Y177273D01*
X28121Y177339D01*
X27965Y177404D01*
X27826Y177486D01*
X27694Y177568D01*
X27571Y177658D01*
X27465Y177740D01*
X27375Y177822D01*
X27293Y177904D01*
X27227Y177970D01*
X27178Y178035D01*
X27145Y178077D01*
X27120Y178109D01*
X27112Y178118D01*
Y177314D01*
X26284D01*
Y182800D01*
X27211D01*
Y179856D01*
X27219Y179610D01*
X27235Y179397D01*
X27260Y179216D01*
X27284Y179060D01*
X27301Y178995D01*
X27317Y178946D01*
X27334Y178896D01*
X27342Y178856D01*
X27350Y178831D01*
X27358Y178806D01*
X27366Y178798D01*
Y178790D01*
X27432Y178659D01*
X27514Y178544D01*
X27604Y178445D01*
X27686Y178364D01*
X27768Y178298D01*
X27834Y178249D01*
X27875Y178216D01*
X27883Y178208D01*
X27891D01*
X28031Y178134D01*
X28162Y178085D01*
X28293Y178044D01*
X28416Y178019D01*
X28523Y178003D01*
X28596Y177995D01*
X28670D01*
X28818Y178003D01*
X28957Y178027D01*
X29080Y178060D01*
X29179Y178101D01*
X29261Y178134D01*
X29326Y178167D01*
X29359Y178191D01*
X29375Y178200D01*
X29474Y178281D01*
X29556Y178380D01*
X29621Y178470D01*
X29671Y178560D01*
X29712Y178642D01*
X29736Y178716D01*
X29744Y178757D01*
X29753Y178773D01*
X29761Y178823D01*
X29769Y178888D01*
X29777Y179036D01*
X29794Y179200D01*
Y179364D01*
X29802Y179511D01*
Y179577D01*
Y179643D01*
Y179692D01*
Y179725D01*
Y179749D01*
Y179757D01*
Y182800D01*
X30728D01*
Y179397D01*
D02*
G37*
G36*
X99895Y177314D02*
X98870D01*
X96837Y182808D01*
X96755Y183038D01*
X96673Y183259D01*
X96607Y183464D01*
X96550Y183644D01*
X96525Y183726D01*
X96501Y183800D01*
X96476Y183866D01*
X96468Y183923D01*
X96451Y183972D01*
X96443Y184005D01*
X96435Y184022D01*
Y184030D01*
X96378Y183825D01*
X96312Y183620D01*
X96246Y183415D01*
X96181Y183218D01*
X96148Y183136D01*
X96123Y183054D01*
X96099Y182980D01*
X96074Y182923D01*
X96058Y182865D01*
X96041Y182833D01*
X96033Y182808D01*
Y182800D01*
X94073Y177314D01*
X92983Y177314D01*
X95910Y184883D01*
X96943D01*
X99895Y177314D01*
D02*
G37*
G36*
X85004Y183989D02*
X82511D01*
Y177314D01*
X81511D01*
Y183989D01*
X79018D01*
Y184882D01*
X85004D01*
Y183989D01*
D02*
G37*
G36*
X58002Y177314D02*
X57001D01*
Y180676D01*
X55714D01*
X55599Y180668D01*
X55501Y180659D01*
X55419D01*
X55361Y180651D01*
X55320Y180643D01*
X55296Y180635D01*
X55287D01*
X55197Y180610D01*
X55115Y180578D01*
X55041Y180545D01*
X54968Y180512D01*
X54910Y180479D01*
X54869Y180455D01*
X54836Y180438D01*
X54828Y180430D01*
X54746Y180373D01*
X54656Y180291D01*
X54566Y180209D01*
X54492Y180127D01*
X54418Y180053D01*
X54369Y179987D01*
X54336Y179946D01*
X54320Y179938D01*
Y179930D01*
X54205Y179782D01*
X54082Y179618D01*
X53967Y179446D01*
X53852Y179274D01*
X53754Y179126D01*
X53705Y179060D01*
X53672Y179003D01*
X53639Y178954D01*
X53615Y178921D01*
X53606Y178897D01*
X53598Y178888D01*
X52598Y177314D01*
X51343D01*
X52655Y179372D01*
X52803Y179585D01*
X52950Y179782D01*
X53090Y179954D01*
X53213Y180102D01*
X53319Y180217D01*
X53369Y180266D01*
X53410Y180307D01*
X53442Y180340D01*
X53467Y180364D01*
X53475Y180373D01*
X53483Y180381D01*
X53565Y180446D01*
X53664Y180520D01*
X53762Y180578D01*
X53861Y180635D01*
X53951Y180684D01*
X54025Y180725D01*
X54074Y180750D01*
X54082Y180758D01*
X54090D01*
X53893Y180791D01*
X53705Y180832D01*
X53533Y180881D01*
X53377Y180930D01*
X53229Y180988D01*
X53098Y181045D01*
X52983Y181102D01*
X52877Y181160D01*
X52778Y181217D01*
X52696Y181274D01*
X52631Y181324D01*
X52573Y181365D01*
X52532Y181406D01*
X52499Y181430D01*
X52483Y181447D01*
X52475Y181455D01*
X52385Y181562D01*
X52303Y181668D01*
X52229Y181783D01*
X52171Y181898D01*
X52122Y182013D01*
X52081Y182127D01*
X52016Y182341D01*
X51991Y182439D01*
X51975Y182529D01*
X51966Y182611D01*
X51958Y182685D01*
X51950Y182734D01*
Y182783D01*
Y182808D01*
Y182816D01*
X51966Y183046D01*
X51999Y183259D01*
X52048Y183448D01*
X52106Y183620D01*
X52139Y183694D01*
X52171Y183759D01*
X52196Y183817D01*
X52221Y183866D01*
X52237Y183907D01*
X52253Y183931D01*
X52270Y183948D01*
Y183956D01*
X52393Y184136D01*
X52532Y184284D01*
X52672Y184415D01*
X52811Y184514D01*
X52926Y184587D01*
X53024Y184637D01*
X53065Y184653D01*
X53090Y184669D01*
X53106Y184678D01*
X53114D01*
X53221Y184710D01*
X53328Y184743D01*
X53574Y184792D01*
X53828Y184833D01*
X54074Y184858D01*
X54197Y184866D01*
X54303Y184874D01*
X54394D01*
X54484Y184882D01*
X58002D01*
Y177314D01*
D02*
G37*
G36*
X50630D02*
X44890D01*
Y178208D01*
X50630D01*
Y177314D01*
D02*
G37*
G36*
X18937Y177314D02*
X18010D01*
Y182800D01*
X18937D01*
Y177314D01*
D02*
G37*
G36*
X116919Y185006D02*
X117099Y184989D01*
X117279Y184965D01*
X117452Y184932D01*
X117616Y184899D01*
X117780Y184850D01*
X117927Y184809D01*
X118067Y184760D01*
X118198Y184710D01*
X118313Y184669D01*
X118411Y184620D01*
X118493Y184587D01*
X118567Y184555D01*
X118616Y184530D01*
X118649Y184514D01*
X118657Y184505D01*
X118829Y184407D01*
X118985Y184300D01*
X119141Y184186D01*
X119280Y184071D01*
X119411Y183948D01*
X119526Y183833D01*
X119641Y183710D01*
X119739Y183595D01*
X119821Y183489D01*
X119903Y183390D01*
X119969Y183300D01*
X120018Y183218D01*
X120059Y183152D01*
X120092Y183103D01*
X120108Y183070D01*
X120117Y183062D01*
X120207Y182890D01*
X120289Y182710D01*
X120354Y182537D01*
X120412Y182365D01*
X120461Y182193D01*
X120510Y182037D01*
X120543Y181881D01*
X120568Y181734D01*
X120592Y181603D01*
X120609Y181480D01*
X120617Y181373D01*
X120625Y181283D01*
X120633Y181209D01*
Y181160D01*
Y181119D01*
Y181111D01*
X120625Y180922D01*
X120609Y180742D01*
X120584Y180561D01*
X120551Y180381D01*
X120518Y180217D01*
X120469Y180053D01*
X120428Y179905D01*
X120379Y179766D01*
X120330Y179635D01*
X120289Y179520D01*
X120240Y179421D01*
X120207Y179339D01*
X120174Y179266D01*
X120149Y179216D01*
X120133Y179184D01*
X120125Y179175D01*
X120026Y179003D01*
X119912Y178847D01*
X119797Y178700D01*
X119682Y178560D01*
X119559Y178429D01*
X119444Y178314D01*
X119321Y178208D01*
X119206Y178109D01*
X119100Y178019D01*
X119001Y177945D01*
X118911Y177880D01*
X118837Y177831D01*
X118772Y177790D01*
X118723Y177757D01*
X118690Y177740D01*
X118682Y177732D01*
X118509Y177642D01*
X118329Y177568D01*
X118157Y177494D01*
X117985Y177437D01*
X117821Y177388D01*
X117657Y177347D01*
X117509Y177314D01*
X117361Y177289D01*
X117230Y177265D01*
X117107Y177248D01*
X117001Y177240D01*
X116910Y177232D01*
X116837Y177224D01*
X116738D01*
X116550Y177232D01*
X116369Y177248D01*
X116189Y177273D01*
X116008Y177306D01*
X115844Y177339D01*
X115680Y177388D01*
X115533Y177429D01*
X115393Y177478D01*
X115262Y177527D01*
X115147Y177568D01*
X115049Y177617D01*
X114967Y177650D01*
X114893Y177683D01*
X114844Y177708D01*
X114811Y177724D01*
X114803Y177732D01*
X114631Y177831D01*
X114475Y177945D01*
X114327Y178060D01*
X114188Y178175D01*
X114057Y178298D01*
X113942Y178413D01*
X113827Y178536D01*
X113737Y178651D01*
X113647Y178757D01*
X113573Y178856D01*
X113507Y178946D01*
X113458Y179020D01*
X113417Y179085D01*
X113384Y179134D01*
X113368Y179167D01*
X113360Y179175D01*
X113270Y179348D01*
X113188Y179528D01*
X113122Y179700D01*
X113065Y179872D01*
X113007Y180036D01*
X112966Y180192D01*
X112933Y180348D01*
X112909Y180487D01*
X112884Y180627D01*
X112868Y180742D01*
X112860Y180848D01*
X112851Y180938D01*
X112843Y181012D01*
Y181070D01*
Y181102D01*
Y181111D01*
X112851Y181299D01*
X112868Y181488D01*
X112892Y181668D01*
X112925Y181849D01*
X112966Y182013D01*
X113007Y182177D01*
X113056Y182324D01*
X113106Y182472D01*
X113155Y182595D01*
X113204Y182710D01*
X113245Y182816D01*
X113286Y182898D01*
X113319Y182972D01*
X113343Y183021D01*
X113360Y183054D01*
X113368Y183062D01*
X113475Y183234D01*
X113581Y183398D01*
X113696Y183546D01*
X113819Y183685D01*
X113942Y183817D01*
X114057Y183931D01*
X114180Y184038D01*
X114295Y184136D01*
X114401Y184227D01*
X114508Y184300D01*
X114598Y184358D01*
X114672Y184415D01*
X114737Y184456D01*
X114787Y184481D01*
X114819Y184497D01*
X114828Y184505D01*
X115000Y184596D01*
X115180Y184669D01*
X115352Y184743D01*
X115516Y184801D01*
X115689Y184850D01*
X115844Y184891D01*
X115992Y184924D01*
X116131Y184948D01*
X116263Y184973D01*
X116377Y184989D01*
X116484Y184997D01*
X116574Y185006D01*
X116640Y185014D01*
X116738D01*
X116919Y185006D01*
D02*
G37*
G36*
X63217Y185005D02*
X63496Y184965D01*
X63758Y184915D01*
X64004Y184850D01*
X64242Y184768D01*
X64455Y184678D01*
X64652Y184579D01*
X64832Y184481D01*
X64996Y184382D01*
X65136Y184284D01*
X65250Y184194D01*
X65357Y184112D01*
X65431Y184046D01*
X65488Y183997D01*
X65529Y183956D01*
X65537Y183948D01*
X65718Y183743D01*
X65874Y183513D01*
X66005Y183283D01*
X66120Y183038D01*
X66218Y182792D01*
X66300Y182546D01*
X66366Y182308D01*
X66423Y182070D01*
X66464Y181849D01*
X66489Y181652D01*
X66513Y181463D01*
X66530Y181307D01*
X66538Y181176D01*
Y181127D01*
X66546Y181078D01*
Y181045D01*
Y181020D01*
Y181004D01*
Y180996D01*
X66538Y180815D01*
X66530Y180627D01*
X66480Y180282D01*
X66448Y180118D01*
X66415Y179963D01*
X66374Y179815D01*
X66333Y179684D01*
X66292Y179552D01*
X66251Y179446D01*
X66218Y179348D01*
X66185Y179266D01*
X66161Y179200D01*
X66136Y179151D01*
X66128Y179118D01*
X66120Y179110D01*
X66029Y178946D01*
X65939Y178790D01*
X65841Y178650D01*
X65734Y178511D01*
X65628Y178388D01*
X65521Y178273D01*
X65423Y178167D01*
X65316Y178068D01*
X65218Y177986D01*
X65127Y177913D01*
X65045Y177847D01*
X64980Y177798D01*
X64922Y177757D01*
X64873Y177724D01*
X64849Y177708D01*
X64840Y177699D01*
X64676Y177609D01*
X64512Y177535D01*
X64348Y177462D01*
X64184Y177404D01*
X64020Y177355D01*
X63865Y177314D01*
X63709Y177281D01*
X63569Y177257D01*
X63430Y177232D01*
X63315Y177216D01*
X63200Y177207D01*
X63110Y177199D01*
X63036Y177191D01*
X62930D01*
X62749Y177199D01*
X62569Y177207D01*
X62225Y177265D01*
X62069Y177298D01*
X61913Y177339D01*
X61774Y177380D01*
X61642Y177421D01*
X61519Y177462D01*
X61413Y177503D01*
X61323Y177544D01*
X61241Y177576D01*
X61175Y177609D01*
X61134Y177634D01*
X61101Y177642D01*
X61093Y177650D01*
X60937Y177740D01*
X60790Y177847D01*
X60650Y177954D01*
X60527Y178060D01*
X60412Y178175D01*
X60298Y178290D01*
X60199Y178404D01*
X60109Y178511D01*
X60035Y178618D01*
X59961Y178716D01*
X59904Y178806D01*
X59855Y178880D01*
X59822Y178938D01*
X59797Y178987D01*
X59781Y179020D01*
X59773Y179028D01*
X59691Y179200D01*
X59617Y179380D01*
X59560Y179552D01*
X59502Y179733D01*
X59453Y179905D01*
X59420Y180077D01*
X59387Y180241D01*
X59363Y180397D01*
X59346Y180545D01*
X59330Y180676D01*
X59322Y180791D01*
X59314Y180889D01*
X59305Y180971D01*
Y181037D01*
Y181070D01*
Y181086D01*
X59314Y181299D01*
X59322Y181496D01*
X59346Y181693D01*
X59371Y181881D01*
X59404Y182053D01*
X59445Y182226D01*
X59486Y182381D01*
X59527Y182521D01*
X59568Y182652D01*
X59609Y182767D01*
X59642Y182874D01*
X59683Y182956D01*
X59707Y183021D01*
X59732Y183070D01*
X59740Y183103D01*
X59748Y183111D01*
X59838Y183275D01*
X59929Y183431D01*
X60035Y183579D01*
X60134Y183710D01*
X60240Y183833D01*
X60347Y183948D01*
X60453Y184054D01*
X60560Y184153D01*
X60658Y184235D01*
X60749Y184309D01*
X60822Y184374D01*
X60896Y184423D01*
X60954Y184464D01*
X60995Y184489D01*
X61027Y184505D01*
X61036Y184514D01*
X61200Y184604D01*
X61355Y184678D01*
X61519Y184743D01*
X61683Y184801D01*
X61847Y184850D01*
X62003Y184891D01*
X62151Y184924D01*
X62298Y184948D01*
X62430Y184973D01*
X62544Y184989D01*
X62651Y184997D01*
X62749Y185005D01*
X62823Y185014D01*
X62922D01*
X63217Y185005D01*
D02*
G37*
G36*
X38240D02*
X38502Y184973D01*
X38732Y184932D01*
X38838Y184907D01*
X38937Y184882D01*
X39027Y184858D01*
X39109Y184833D01*
X39183Y184809D01*
X39240Y184792D01*
X39281Y184776D01*
X39322Y184759D01*
X39338Y184751D01*
X39347D01*
X39568Y184645D01*
X39757Y184522D01*
X39921Y184399D01*
X40052Y184276D01*
X40158Y184161D01*
X40240Y184071D01*
X40265Y184038D01*
X40281Y184013D01*
X40298Y183997D01*
Y183989D01*
X40404Y183800D01*
X40486Y183612D01*
X40536Y183439D01*
X40577Y183275D01*
X40601Y183128D01*
X40609Y183070D01*
Y183021D01*
X40618Y182980D01*
Y182947D01*
Y182931D01*
Y182923D01*
X40609Y182734D01*
X40577Y182554D01*
X40536Y182390D01*
X40486Y182250D01*
X40437Y182135D01*
X40396Y182045D01*
X40380Y182013D01*
X40363Y181988D01*
X40355Y181980D01*
Y181972D01*
X40249Y181824D01*
X40117Y181685D01*
X39986Y181570D01*
X39847Y181463D01*
X39732Y181381D01*
X39634Y181324D01*
X39593Y181307D01*
X39568Y181291D01*
X39552Y181274D01*
X39543D01*
X39461Y181234D01*
X39363Y181193D01*
X39256Y181151D01*
X39142Y181111D01*
X38904Y181028D01*
X38658Y180955D01*
X38543Y180922D01*
X38445Y180889D01*
X38346Y180865D01*
X38256Y180840D01*
X38190Y180824D01*
X38133Y180807D01*
X38100Y180799D01*
X38092D01*
X37903Y180758D01*
X37731Y180709D01*
X37584Y180676D01*
X37444Y180635D01*
X37321Y180602D01*
X37206Y180578D01*
X37116Y180545D01*
X37026Y180520D01*
X36960Y180504D01*
X36895Y180479D01*
X36846Y180463D01*
X36813Y180455D01*
X36780Y180446D01*
X36764Y180438D01*
X36747Y180430D01*
X36583Y180356D01*
X36444Y180282D01*
X36321Y180209D01*
X36231Y180143D01*
X36157Y180077D01*
X36108Y180028D01*
X36075Y179995D01*
X36067Y179987D01*
X35993Y179889D01*
X35944Y179782D01*
X35903Y179675D01*
X35878Y179577D01*
X35862Y179495D01*
X35853Y179421D01*
Y179380D01*
Y179372D01*
Y179364D01*
X35862Y179241D01*
X35886Y179118D01*
X35927Y179011D01*
X35960Y178913D01*
X36001Y178831D01*
X36042Y178765D01*
X36067Y178733D01*
X36075Y178716D01*
X36165Y178610D01*
X36263Y178519D01*
X36378Y178437D01*
X36485Y178372D01*
X36583Y178323D01*
X36657Y178281D01*
X36690Y178265D01*
X36714Y178257D01*
X36723Y178249D01*
X36731D01*
X36895Y178191D01*
X37067Y178150D01*
X37239Y178126D01*
X37395Y178109D01*
X37526Y178093D01*
X37584D01*
X37633Y178085D01*
X37731D01*
X37969Y178093D01*
X38182Y178118D01*
X38387Y178158D01*
X38559Y178200D01*
X38633Y178216D01*
X38699Y178232D01*
X38756Y178257D01*
X38805Y178273D01*
X38846Y178290D01*
X38871Y178298D01*
X38887Y178306D01*
X38896D01*
X39076Y178396D01*
X39232Y178495D01*
X39363Y178585D01*
X39470Y178683D01*
X39552Y178765D01*
X39609Y178831D01*
X39650Y178872D01*
X39658Y178888D01*
X39740Y179036D01*
X39806Y179192D01*
X39855Y179348D01*
X39896Y179495D01*
X39929Y179634D01*
X39937Y179684D01*
X39945Y179733D01*
X39953Y179774D01*
X39962Y179807D01*
Y179823D01*
Y179831D01*
X40905Y179749D01*
X40896Y179610D01*
X40880Y179471D01*
X40831Y179216D01*
X40765Y178979D01*
X40732Y178872D01*
X40691Y178782D01*
X40659Y178692D01*
X40618Y178610D01*
X40585Y178544D01*
X40552Y178487D01*
X40527Y178437D01*
X40511Y178404D01*
X40503Y178388D01*
X40495Y178380D01*
X40339Y178167D01*
X40158Y177986D01*
X39978Y177831D01*
X39806Y177708D01*
X39650Y177609D01*
X39584Y177576D01*
X39527Y177544D01*
X39478Y177519D01*
X39445Y177503D01*
X39420Y177486D01*
X39412D01*
X39133Y177388D01*
X38846Y177314D01*
X38559Y177265D01*
X38289Y177232D01*
X38158Y177216D01*
X38043Y177207D01*
X37944Y177199D01*
X37854D01*
X37780Y177191D01*
X37682D01*
X37387Y177207D01*
X37116Y177240D01*
X36870Y177281D01*
X36755Y177314D01*
X36657Y177339D01*
X36559Y177363D01*
X36477Y177396D01*
X36403Y177421D01*
X36345Y177437D01*
X36296Y177462D01*
X36263Y177470D01*
X36239Y177486D01*
X36231D01*
X36001Y177609D01*
X35804Y177740D01*
X35632Y177880D01*
X35493Y178011D01*
X35378Y178134D01*
X35304Y178224D01*
X35271Y178265D01*
X35255Y178290D01*
X35238Y178306D01*
Y178314D01*
X35173Y178413D01*
X35124Y178519D01*
X35033Y178716D01*
X34968Y178905D01*
X34927Y179077D01*
X34902Y179233D01*
X34894Y179290D01*
Y179348D01*
X34886Y179388D01*
Y179421D01*
Y179438D01*
Y179446D01*
X34902Y179667D01*
X34935Y179872D01*
X34984Y180053D01*
X35042Y180209D01*
X35107Y180340D01*
X35132Y180397D01*
X35156Y180438D01*
X35173Y180471D01*
X35189Y180496D01*
X35206Y180512D01*
Y180520D01*
X35271Y180602D01*
X35337Y180684D01*
X35493Y180840D01*
X35648Y180971D01*
X35812Y181078D01*
X35952Y181168D01*
X36017Y181209D01*
X36075Y181234D01*
X36116Y181258D01*
X36149Y181274D01*
X36173Y181291D01*
X36181D01*
X36272Y181332D01*
X36386Y181373D01*
X36501Y181414D01*
X36632Y181455D01*
X36911Y181529D01*
X37190Y181603D01*
X37321Y181644D01*
X37444Y181668D01*
X37559Y181701D01*
X37657Y181717D01*
X37739Y181742D01*
X37797Y181758D01*
X37838Y181767D01*
X37854D01*
X38076Y181816D01*
X38272Y181873D01*
X38445Y181922D01*
X38609Y181972D01*
X38748Y182021D01*
X38871Y182062D01*
X38978Y182103D01*
X39068Y182144D01*
X39142Y182185D01*
X39207Y182218D01*
X39256Y182242D01*
X39297Y182267D01*
X39330Y182291D01*
X39347Y182308D01*
X39363Y182316D01*
X39461Y182423D01*
X39527Y182529D01*
X39576Y182644D01*
X39617Y182750D01*
X39634Y182841D01*
X39642Y182915D01*
X39650Y182964D01*
Y182972D01*
Y182980D01*
X39642Y183070D01*
X39634Y183152D01*
X39584Y183300D01*
X39519Y183439D01*
X39445Y183554D01*
X39371Y183652D01*
X39306Y183726D01*
X39256Y183767D01*
X39248Y183784D01*
X39240D01*
X39158Y183841D01*
X39060Y183899D01*
X38855Y183981D01*
X38641Y184038D01*
X38420Y184079D01*
X38322Y184095D01*
X38223Y184104D01*
X38141Y184112D01*
X38067D01*
X38002Y184120D01*
X37764D01*
X37616Y184104D01*
X37477Y184087D01*
X37346Y184063D01*
X37231Y184038D01*
X37124Y184005D01*
X37026Y183972D01*
X36936Y183940D01*
X36862Y183899D01*
X36796Y183866D01*
X36739Y183833D01*
X36690Y183808D01*
X36657Y183784D01*
X36624Y183767D01*
X36616Y183759D01*
X36608Y183751D01*
X36526Y183677D01*
X36452Y183603D01*
X36337Y183431D01*
X36239Y183251D01*
X36173Y183079D01*
X36124Y182923D01*
X36108Y182857D01*
X36091Y182791D01*
X36083Y182742D01*
Y182710D01*
X36075Y182685D01*
Y182677D01*
X35115Y182750D01*
X35140Y182996D01*
X35189Y183218D01*
X35247Y183423D01*
X35312Y183595D01*
X35353Y183669D01*
X35378Y183743D01*
X35411Y183800D01*
X35435Y183849D01*
X35460Y183890D01*
X35476Y183915D01*
X35484Y183931D01*
X35493Y183940D01*
X35632Y184128D01*
X35788Y184284D01*
X35952Y184423D01*
X36116Y184538D01*
X36255Y184620D01*
X36321Y184653D01*
X36370Y184686D01*
X36411Y184710D01*
X36452Y184719D01*
X36468Y184735D01*
X36477D01*
X36723Y184825D01*
X36977Y184899D01*
X37231Y184948D01*
X37461Y184981D01*
X37567Y184989D01*
X37657Y184997D01*
X37748Y185005D01*
X37821Y185014D01*
X37961D01*
X38240Y185005D01*
D02*
G37*
G36*
X21339Y182160D02*
X21438Y182283D01*
X21544Y182390D01*
X21651Y182480D01*
X21749Y182562D01*
X21840Y182627D01*
X21905Y182668D01*
X21954Y182701D01*
X21963Y182710D01*
X21971D01*
X22118Y182783D01*
X22274Y182833D01*
X22422Y182873D01*
X22561Y182898D01*
X22676Y182914D01*
X22774Y182923D01*
X22979D01*
X23102Y182906D01*
X23332Y182865D01*
X23537Y182808D01*
X23717Y182742D01*
X23799Y182710D01*
X23865Y182677D01*
X23931Y182644D01*
X23980Y182619D01*
X24021Y182595D01*
X24054Y182578D01*
X24070Y182570D01*
X24078Y182562D01*
X24275Y182414D01*
X24439Y182250D01*
X24578Y182086D01*
X24693Y181914D01*
X24783Y181766D01*
X24816Y181701D01*
X24849Y181652D01*
X24865Y181603D01*
X24882Y181570D01*
X24898Y181545D01*
Y181537D01*
X24988Y181283D01*
X25054Y181020D01*
X25103Y180774D01*
X25136Y180545D01*
X25144Y180438D01*
X25152Y180340D01*
X25161Y180258D01*
Y180184D01*
X25169Y180127D01*
Y180086D01*
Y180053D01*
Y180044D01*
X25152Y179741D01*
X25120Y179462D01*
X25103Y179331D01*
X25079Y179208D01*
X25046Y179093D01*
X25021Y178987D01*
X24997Y178896D01*
X24964Y178806D01*
X24939Y178733D01*
X24923Y178675D01*
X24898Y178626D01*
X24890Y178593D01*
X24874Y178568D01*
Y178560D01*
X24751Y178331D01*
X24611Y178126D01*
X24472Y177954D01*
X24332Y177814D01*
X24209Y177699D01*
X24160Y177658D01*
X24111Y177617D01*
X24070Y177593D01*
X24045Y177568D01*
X24029Y177560D01*
X24021Y177552D01*
X23914Y177486D01*
X23808Y177437D01*
X23603Y177347D01*
X23398Y177281D01*
X23209Y177240D01*
X23127Y177224D01*
X23053Y177207D01*
X22988Y177199D01*
X22930D01*
X22881Y177191D01*
X22815D01*
X22627Y177199D01*
X22455Y177224D01*
X22299Y177265D01*
X22143Y177322D01*
X22004Y177380D01*
X21881Y177445D01*
X21766Y177519D01*
X21659Y177601D01*
X21569Y177675D01*
X21495Y177749D01*
X21430Y177814D01*
X21372Y177880D01*
X21331Y177929D01*
X21298Y177970D01*
X21282Y177995D01*
X21274Y178003D01*
Y177314D01*
X20413D01*
Y184882D01*
X21339D01*
Y182160D01*
D02*
G37*
G36*
X14566Y182914D02*
X14747Y182898D01*
X14911Y182865D01*
X15075Y182824D01*
X15230Y182783D01*
X15370Y182726D01*
X15501Y182677D01*
X15616Y182619D01*
X15731Y182562D01*
X15821Y182504D01*
X15903Y182447D01*
X15977Y182406D01*
X16026Y182365D01*
X16067Y182332D01*
X16091Y182316D01*
X16100Y182308D01*
X16247Y182160D01*
X16378Y182004D01*
X16493Y181832D01*
X16592Y181652D01*
X16665Y181463D01*
X16739Y181274D01*
X16797Y181086D01*
X16838Y180905D01*
X16870Y180733D01*
X16903Y180578D01*
X16920Y180430D01*
X16928Y180299D01*
X16936Y180200D01*
X16944Y180118D01*
Y180069D01*
Y180061D01*
Y180053D01*
X16936Y179798D01*
X16911Y179561D01*
X16879Y179339D01*
X16838Y179134D01*
X16780Y178946D01*
X16723Y178773D01*
X16657Y178618D01*
X16592Y178470D01*
X16526Y178347D01*
X16460Y178232D01*
X16403Y178142D01*
X16346Y178068D01*
X16305Y178003D01*
X16272Y177962D01*
X16247Y177937D01*
X16239Y177929D01*
X16100Y177798D01*
X15952Y177683D01*
X15804Y177585D01*
X15649Y177503D01*
X15493Y177429D01*
X15337Y177371D01*
X15189Y177322D01*
X15042Y177281D01*
X14902Y177257D01*
X14779Y177232D01*
X14665Y177216D01*
X14566Y177199D01*
X14484D01*
X14427Y177191D01*
X14378D01*
X14115Y177207D01*
X13869Y177240D01*
X13648Y177297D01*
X13541Y177322D01*
X13451Y177355D01*
X13361Y177388D01*
X13287Y177412D01*
X13221Y177445D01*
X13164Y177470D01*
X13115Y177486D01*
X13082Y177503D01*
X13066Y177519D01*
X13057D01*
X12844Y177658D01*
X12656Y177806D01*
X12500Y177962D01*
X12369Y178118D01*
X12262Y178249D01*
X12221Y178314D01*
X12188Y178364D01*
X12164Y178404D01*
X12147Y178437D01*
X12131Y178454D01*
Y178462D01*
X12073Y178585D01*
X12024Y178708D01*
X11942Y178979D01*
X11885Y179257D01*
X11852Y179520D01*
X11836Y179643D01*
X11827Y179757D01*
X11819Y179864D01*
Y179954D01*
X11811Y180028D01*
Y180077D01*
Y180118D01*
Y180127D01*
X11819Y180364D01*
X11844Y180594D01*
X11877Y180807D01*
X11926Y181004D01*
X11975Y181184D01*
X12041Y181348D01*
X12106Y181504D01*
X12172Y181643D01*
X12237Y181766D01*
X12303Y181873D01*
X12369Y181963D01*
X12418Y182037D01*
X12467Y182103D01*
X12500Y182144D01*
X12524Y182168D01*
X12533Y182176D01*
X12672Y182308D01*
X12820Y182422D01*
X12967Y182521D01*
X13123Y182611D01*
X13279Y182677D01*
X13426Y182742D01*
X13582Y182791D01*
X13722Y182833D01*
X13861Y182857D01*
X13984Y182882D01*
X14091Y182898D01*
X14189Y182914D01*
X14271D01*
X14328Y182923D01*
X14378D01*
X14566Y182914D01*
D02*
G37*
%LPC*%
G36*
X344682Y26414D02*
X342407D01*
Y24140D01*
X344682D01*
Y26414D01*
D02*
G37*
G36*
X330860D02*
X328586D01*
Y24140D01*
X330860D01*
Y26414D01*
D02*
G37*
G36*
X344682Y12593D02*
X342407D01*
Y10318D01*
X344682D01*
Y12593D01*
D02*
G37*
G36*
X57001Y184046D02*
X54451D01*
X54312Y184030D01*
X54180Y184013D01*
X54057Y183989D01*
X53951Y183964D01*
X53852Y183931D01*
X53762Y183907D01*
X53680Y183874D01*
X53606Y183841D01*
X53549Y183808D01*
X53492Y183775D01*
X53451Y183751D01*
X53418Y183726D01*
X53393Y183710D01*
X53385Y183702D01*
X53377Y183694D01*
X53311Y183628D01*
X53246Y183554D01*
X53147Y183415D01*
X53082Y183267D01*
X53032Y183128D01*
X53000Y183005D01*
X52991Y182947D01*
Y182906D01*
X52983Y182865D01*
Y182841D01*
Y182824D01*
Y182816D01*
X52991Y182685D01*
X53016Y182554D01*
X53049Y182439D01*
X53082Y182341D01*
X53123Y182250D01*
X53155Y182193D01*
X53180Y182152D01*
X53188Y182135D01*
X53270Y182029D01*
X53369Y181930D01*
X53467Y181857D01*
X53557Y181791D01*
X53647Y181742D01*
X53713Y181709D01*
X53762Y181693D01*
X53770Y181685D01*
X53779D01*
X53934Y181635D01*
X54107Y181603D01*
X54287Y181578D01*
X54459Y181562D01*
X54615Y181553D01*
X54681D01*
X54738Y181545D01*
X57001D01*
Y184046D01*
D02*
G37*
G36*
X116820Y184366D02*
X116738D01*
X116582Y184358D01*
X116435Y184350D01*
X116148Y184300D01*
X115877Y184235D01*
X115754Y184194D01*
X115639Y184153D01*
X115533Y184112D01*
X115434Y184071D01*
X115352Y184038D01*
X115279Y184005D01*
X115221Y183981D01*
X115180Y183956D01*
X115156Y183948D01*
X115147Y183940D01*
X115008Y183858D01*
X114869Y183767D01*
X114746Y183677D01*
X114631Y183579D01*
X114524Y183472D01*
X114418Y183374D01*
X114327Y183275D01*
X114245Y183177D01*
X114172Y183087D01*
X114114Y183005D01*
X114057Y182931D01*
X114016Y182865D01*
X113975Y182808D01*
X113950Y182767D01*
X113942Y182742D01*
X113934Y182734D01*
X113852Y182587D01*
X113786Y182439D01*
X113729Y182291D01*
X113680Y182152D01*
X113598Y181881D01*
X113573Y181750D01*
X113548Y181627D01*
X113524Y181521D01*
X113516Y181422D01*
X113507Y181332D01*
X113499Y181258D01*
X113491Y181193D01*
Y181152D01*
Y181119D01*
Y181111D01*
X113499Y180955D01*
X113507Y180799D01*
X113557Y180504D01*
X113630Y180233D01*
X113671Y180110D01*
X113704Y179995D01*
X113745Y179889D01*
X113786Y179790D01*
X113827Y179708D01*
X113860Y179635D01*
X113885Y179577D01*
X113909Y179536D01*
X113917Y179512D01*
X113926Y179503D01*
X114008Y179364D01*
X114098Y179233D01*
X114196Y179110D01*
X114295Y178987D01*
X114393Y178880D01*
X114491Y178782D01*
X114590Y178692D01*
X114688Y178610D01*
X114778Y178536D01*
X114860Y178478D01*
X114934Y178421D01*
X115000Y178380D01*
X115057Y178347D01*
X115098Y178314D01*
X115123Y178306D01*
X115131Y178298D01*
X115279Y178224D01*
X115418Y178159D01*
X115566Y178101D01*
X115705Y178052D01*
X115976Y177978D01*
X116107Y177945D01*
X116222Y177929D01*
X116336Y177904D01*
X116435Y177896D01*
X116517Y177888D01*
X116599Y177880D01*
X116656Y177872D01*
X116738D01*
X116894Y177880D01*
X117050Y177888D01*
X117345Y177937D01*
X117624Y178003D01*
X117747Y178044D01*
X117862Y178085D01*
X117968Y178126D01*
X118067Y178167D01*
X118149Y178200D01*
X118222Y178232D01*
X118280Y178257D01*
X118321Y178282D01*
X118345Y178290D01*
X118354Y178298D01*
X118624Y178478D01*
X118747Y178569D01*
X118870Y178667D01*
X118977Y178774D01*
X119075Y178872D01*
X119165Y178970D01*
X119247Y179061D01*
X119321Y179151D01*
X119379Y179233D01*
X119436Y179315D01*
X119477Y179380D01*
X119510Y179430D01*
X119543Y179471D01*
X119551Y179495D01*
X119559Y179503D01*
X119633Y179651D01*
X119698Y179790D01*
X119756Y179938D01*
X119805Y180077D01*
X119879Y180348D01*
X119912Y180479D01*
X119928Y180594D01*
X119953Y180709D01*
X119961Y180807D01*
X119969Y180897D01*
X119977Y180971D01*
X119985Y181029D01*
Y181070D01*
Y181102D01*
Y181111D01*
X119977Y181266D01*
X119969Y181422D01*
X119920Y181717D01*
X119846Y181996D01*
X119805Y182119D01*
X119764Y182242D01*
X119731Y182349D01*
X119690Y182447D01*
X119649Y182529D01*
X119616Y182603D01*
X119592Y182660D01*
X119567Y182701D01*
X119559Y182726D01*
X119551Y182734D01*
X119469Y182882D01*
X119370Y183013D01*
X119280Y183136D01*
X119174Y183259D01*
X119075Y183366D01*
X118977Y183464D01*
X118878Y183554D01*
X118780Y183636D01*
X118690Y183702D01*
X118608Y183767D01*
X118534Y183817D01*
X118468Y183866D01*
X118411Y183899D01*
X118370Y183923D01*
X118345Y183931D01*
X118337Y183940D01*
X118190Y184013D01*
X118042Y184079D01*
X117903Y184136D01*
X117755Y184186D01*
X117493Y184259D01*
X117361Y184292D01*
X117247Y184317D01*
X117140Y184333D01*
X117042Y184341D01*
X116951Y184350D01*
X116878Y184358D01*
X116820Y184366D01*
D02*
G37*
%LPD*%
G36*
X116910Y183300D02*
X117124Y183267D01*
X117304Y183226D01*
X117468Y183177D01*
X117542Y183152D01*
X117599Y183128D01*
X117657Y183103D01*
X117706Y183087D01*
X117739Y183070D01*
X117763Y183054D01*
X117780Y183046D01*
X117788D01*
X117952Y182939D01*
X118099Y182816D01*
X118231Y182693D01*
X118329Y182570D01*
X118411Y182455D01*
X118468Y182365D01*
X118493Y182332D01*
X118509Y182308D01*
X118518Y182291D01*
Y182283D01*
X118600Y182086D01*
X118665Y181890D01*
X118706Y181693D01*
X118739Y181504D01*
X118747Y181422D01*
X118755Y181348D01*
X118764Y181275D01*
Y181217D01*
X118772Y181168D01*
Y181135D01*
Y181111D01*
Y181102D01*
X118764Y180914D01*
X118747Y180733D01*
X118723Y180569D01*
X118682Y180405D01*
X118641Y180266D01*
X118591Y180127D01*
X118542Y180004D01*
X118485Y179897D01*
X118436Y179799D01*
X118386Y179717D01*
X118337Y179643D01*
X118296Y179577D01*
X118255Y179536D01*
X118231Y179495D01*
X118214Y179479D01*
X118206Y179471D01*
X118099Y179372D01*
X117976Y179282D01*
X117862Y179200D01*
X117739Y179134D01*
X117616Y179077D01*
X117493Y179028D01*
X117370Y178995D01*
X117255Y178962D01*
X117148Y178938D01*
X117050Y178921D01*
X116960Y178905D01*
X116878Y178897D01*
X116820Y178888D01*
X116730D01*
X116599Y178897D01*
X116476Y178905D01*
X116238Y178946D01*
X116033Y179011D01*
X115943Y179044D01*
X115853Y179077D01*
X115779Y179110D01*
X115713Y179143D01*
X115656Y179175D01*
X115607Y179208D01*
X115566Y179233D01*
X115541Y179249D01*
X115525Y179266D01*
X115516D01*
X115426Y179339D01*
X115344Y179421D01*
X115197Y179594D01*
X115082Y179766D01*
X114992Y179930D01*
X114926Y180077D01*
X114901Y180135D01*
X114885Y180192D01*
X114869Y180233D01*
X114860Y180274D01*
X114852Y180291D01*
Y180299D01*
X115484Y180487D01*
X115533Y180323D01*
X115607Y180184D01*
X115680Y180053D01*
X115762Y179954D01*
X115836Y179864D01*
X115894Y179807D01*
X115935Y179774D01*
X115943Y179758D01*
X115951D01*
X116090Y179667D01*
X116230Y179610D01*
X116361Y179561D01*
X116492Y179528D01*
X116599Y179512D01*
X116689Y179503D01*
X116722Y179495D01*
X116763D01*
X116869Y179503D01*
X116968Y179512D01*
X117156Y179561D01*
X117320Y179626D01*
X117452Y179700D01*
X117558Y179774D01*
X117640Y179831D01*
X117689Y179881D01*
X117698Y179889D01*
X117706Y179897D01*
X117771Y179979D01*
X117821Y180061D01*
X117911Y180258D01*
X117976Y180455D01*
X118017Y180643D01*
X118050Y180824D01*
X118058Y180897D01*
Y180963D01*
X118067Y181020D01*
Y181061D01*
Y181086D01*
Y181094D01*
X118058Y181242D01*
X118050Y181373D01*
X118034Y181496D01*
X118009Y181619D01*
X117976Y181726D01*
X117944Y181824D01*
X117911Y181914D01*
X117878Y181996D01*
X117845Y182070D01*
X117812Y182136D01*
X117780Y182185D01*
X117747Y182226D01*
X117722Y182267D01*
X117706Y182291D01*
X117689Y182300D01*
Y182308D01*
X117616Y182382D01*
X117534Y182447D01*
X117460Y182505D01*
X117378Y182554D01*
X117214Y182628D01*
X117058Y182685D01*
X116919Y182710D01*
X116861Y182718D01*
X116812Y182726D01*
X116771Y182734D01*
X116714D01*
X116566Y182726D01*
X116427Y182701D01*
X116304Y182669D01*
X116205Y182628D01*
X116115Y182587D01*
X116058Y182554D01*
X116017Y182529D01*
X116000Y182521D01*
X115894Y182431D01*
X115803Y182341D01*
X115721Y182242D01*
X115656Y182144D01*
X115607Y182054D01*
X115574Y181988D01*
X115549Y181939D01*
X115541Y181931D01*
Y181922D01*
X114926Y182086D01*
X115000Y182283D01*
X115098Y182464D01*
X115197Y182611D01*
X115303Y182742D01*
X115393Y182841D01*
X115475Y182915D01*
X115508Y182939D01*
X115533Y182956D01*
X115541Y182972D01*
X115549D01*
X115730Y183087D01*
X115918Y183169D01*
X116107Y183226D01*
X116287Y183267D01*
X116443Y183292D01*
X116517Y183300D01*
X116574D01*
X116623Y183308D01*
X116689D01*
X116910Y183300D01*
D02*
G37*
%LPC*%
G36*
X62971Y184153D02*
X62782D01*
X62643Y184136D01*
X62389Y184095D01*
X62159Y184030D01*
X62061Y183997D01*
X61962Y183964D01*
X61872Y183923D01*
X61798Y183890D01*
X61733Y183858D01*
X61675Y183825D01*
X61626Y183800D01*
X61593Y183784D01*
X61577Y183775D01*
X61569Y183767D01*
X61355Y183612D01*
X61175Y183439D01*
X61019Y183267D01*
X60888Y183095D01*
X60790Y182939D01*
X60749Y182874D01*
X60716Y182816D01*
X60691Y182767D01*
X60675Y182734D01*
X60658Y182710D01*
Y182701D01*
X60552Y182431D01*
X60470Y182160D01*
X60412Y181890D01*
X60380Y181635D01*
X60363Y181521D01*
X60355Y181414D01*
X60347Y181324D01*
Y181242D01*
X60339Y181176D01*
Y181127D01*
Y181094D01*
Y181086D01*
X60347Y180824D01*
X60371Y180569D01*
X60404Y180340D01*
X60453Y180118D01*
X60511Y179913D01*
X60568Y179733D01*
X60642Y179561D01*
X60708Y179413D01*
X60773Y179274D01*
X60839Y179159D01*
X60904Y179060D01*
X60962Y178979D01*
X61011Y178913D01*
X61044Y178872D01*
X61068Y178839D01*
X61077Y178831D01*
X61216Y178692D01*
X61364Y178569D01*
X61519Y178470D01*
X61675Y178380D01*
X61831Y178298D01*
X61987Y178232D01*
X62134Y178183D01*
X62282Y178142D01*
X62413Y178109D01*
X62544Y178085D01*
X62651Y178068D01*
X62749Y178060D01*
X62831Y178052D01*
X62889Y178044D01*
X62938D01*
X63143Y178052D01*
X63332Y178077D01*
X63520Y178118D01*
X63692Y178167D01*
X63856Y178224D01*
X64004Y178290D01*
X64152Y178364D01*
X64275Y178437D01*
X64389Y178503D01*
X64488Y178577D01*
X64578Y178642D01*
X64652Y178700D01*
X64709Y178749D01*
X64750Y178790D01*
X64775Y178815D01*
X64783Y178823D01*
X64914Y178979D01*
X65021Y179143D01*
X65119Y179315D01*
X65201Y179495D01*
X65275Y179675D01*
X65332Y179848D01*
X65382Y180028D01*
X65423Y180200D01*
X65455Y180356D01*
X65472Y180504D01*
X65488Y180635D01*
X65505Y180750D01*
Y180848D01*
X65513Y180922D01*
Y180963D01*
Y180979D01*
X65505Y181291D01*
X65480Y181578D01*
X65439Y181840D01*
X65390Y182078D01*
X65332Y182299D01*
X65275Y182496D01*
X65201Y182677D01*
X65127Y182841D01*
X65062Y182972D01*
X64988Y183095D01*
X64931Y183193D01*
X64865Y183275D01*
X64824Y183333D01*
X64783Y183382D01*
X64758Y183406D01*
X64750Y183415D01*
X64603Y183546D01*
X64447Y183661D01*
X64291Y183759D01*
X64135Y183841D01*
X63988Y183915D01*
X63832Y183972D01*
X63684Y184022D01*
X63545Y184063D01*
X63414Y184087D01*
X63299Y184112D01*
X63192Y184128D01*
X63102Y184145D01*
X63020D01*
X62971Y184153D01*
D02*
G37*
G36*
X22824Y182152D02*
X22766D01*
X22651Y182144D01*
X22537Y182127D01*
X22430Y182103D01*
X22332Y182070D01*
X22143Y181980D01*
X21987Y181889D01*
X21864Y181791D01*
X21815Y181742D01*
X21766Y181701D01*
X21733Y181668D01*
X21708Y181643D01*
X21700Y181627D01*
X21692Y181619D01*
X21610Y181512D01*
X21544Y181397D01*
X21487Y181274D01*
X21438Y181143D01*
X21356Y180865D01*
X21307Y180602D01*
X21282Y180471D01*
X21274Y180356D01*
X21266Y180250D01*
X21257Y180151D01*
X21249Y180077D01*
Y180020D01*
Y179987D01*
Y179971D01*
X21257Y179782D01*
X21266Y179610D01*
X21290Y179446D01*
X21315Y179298D01*
X21348Y179167D01*
X21389Y179036D01*
X21430Y178921D01*
X21462Y178823D01*
X21503Y178733D01*
X21544Y178659D01*
X21585Y178593D01*
X21618Y178544D01*
X21643Y178495D01*
X21667Y178470D01*
X21676Y178454D01*
X21684Y178445D01*
X21766Y178355D01*
X21848Y178281D01*
X21938Y178216D01*
X22028Y178158D01*
X22110Y178118D01*
X22200Y178077D01*
X22364Y178019D01*
X22504Y177978D01*
X22569Y177970D01*
X22619Y177962D01*
X22668Y177954D01*
X22725D01*
X22840Y177962D01*
X22947Y177978D01*
X23045Y178003D01*
X23143Y178035D01*
X23324Y178118D01*
X23480Y178216D01*
X23603Y178306D01*
X23652Y178347D01*
X23693Y178388D01*
X23726Y178421D01*
X23758Y178445D01*
X23767Y178462D01*
X23775Y178470D01*
X23849Y178577D01*
X23922Y178691D01*
X23980Y178814D01*
X24029Y178937D01*
X24111Y179200D01*
X24160Y179454D01*
X24177Y179577D01*
X24193Y179684D01*
X24201Y179782D01*
X24209Y179872D01*
X24218Y179946D01*
Y179995D01*
Y180036D01*
Y180044D01*
X24209Y180241D01*
X24201Y180430D01*
X24177Y180594D01*
X24152Y180758D01*
X24119Y180897D01*
X24086Y181028D01*
X24054Y181151D01*
X24013Y181250D01*
X23972Y181348D01*
X23939Y181422D01*
X23906Y181496D01*
X23873Y181545D01*
X23849Y181586D01*
X23824Y181619D01*
X23816Y181635D01*
X23808Y181643D01*
X23726Y181734D01*
X23644Y181807D01*
X23553Y181881D01*
X23471Y181939D01*
X23381Y181988D01*
X23291Y182029D01*
X23127Y182086D01*
X22988Y182127D01*
X22922Y182135D01*
X22873Y182144D01*
X22824Y182152D01*
D02*
G37*
G36*
X14443D02*
X14378D01*
X14255Y182144D01*
X14132Y182127D01*
X14017Y182103D01*
X13910Y182070D01*
X13713Y181988D01*
X13541Y181889D01*
X13476Y181840D01*
X13410Y181791D01*
X13361Y181750D01*
X13312Y181709D01*
X13279Y181676D01*
X13254Y181652D01*
X13238Y181635D01*
X13230Y181627D01*
X13148Y181520D01*
X13074Y181414D01*
X13016Y181291D01*
X12959Y181168D01*
X12910Y181037D01*
X12877Y180905D01*
X12820Y180659D01*
X12803Y180545D01*
X12787Y180438D01*
X12779Y180340D01*
X12770Y180250D01*
X12762Y180184D01*
Y180127D01*
Y180094D01*
Y180086D01*
X12770Y179889D01*
X12779Y179708D01*
X12803Y179536D01*
X12836Y179380D01*
X12869Y179233D01*
X12910Y179102D01*
X12951Y178979D01*
X12992Y178880D01*
X13041Y178782D01*
X13082Y178700D01*
X13123Y178634D01*
X13156Y178577D01*
X13189Y178536D01*
X13213Y178503D01*
X13221Y178487D01*
X13230Y178478D01*
X13320Y178388D01*
X13410Y178306D01*
X13508Y178232D01*
X13599Y178175D01*
X13697Y178126D01*
X13795Y178085D01*
X13976Y178019D01*
X14132Y177978D01*
X14205Y177970D01*
X14263Y177962D01*
X14312Y177954D01*
X14378D01*
X14509Y177962D01*
X14624Y177978D01*
X14747Y178003D01*
X14853Y178035D01*
X15050Y178118D01*
X15214Y178216D01*
X15288Y178257D01*
X15353Y178306D01*
X15403Y178347D01*
X15452Y178388D01*
X15485Y178421D01*
X15509Y178445D01*
X15526Y178462D01*
X15534Y178470D01*
X15616Y178577D01*
X15681Y178691D01*
X15747Y178814D01*
X15796Y178937D01*
X15878Y179200D01*
X15936Y179462D01*
X15952Y179577D01*
X15968Y179692D01*
X15977Y179790D01*
X15985Y179880D01*
X15993Y179954D01*
Y180003D01*
Y180044D01*
Y180053D01*
X15985Y180241D01*
X15977Y180422D01*
X15952Y180586D01*
X15919Y180742D01*
X15886Y180881D01*
X15845Y181012D01*
X15804Y181127D01*
X15763Y181234D01*
X15722Y181324D01*
X15681Y181406D01*
X15640Y181471D01*
X15608Y181529D01*
X15575Y181570D01*
X15550Y181603D01*
X15542Y181619D01*
X15534Y181627D01*
X15444Y181717D01*
X15353Y181799D01*
X15255Y181873D01*
X15157Y181930D01*
X15058Y181980D01*
X14968Y182021D01*
X14779Y182086D01*
X14624Y182127D01*
X14550Y182135D01*
X14492Y182144D01*
X14443Y182152D01*
D02*
G37*
%LPD*%
D20*
X346000Y166000D02*
X354000Y158000D01*
X309000Y166000D02*
X346000D01*
X293000D02*
X309000D01*
X237000Y110000D02*
X293000Y166000D01*
X351000Y172000D02*
X354000Y175000D01*
X347000Y168000D02*
X351000Y172000D01*
X304000Y168000D02*
X347000D01*
X282000D02*
X304000D01*
X248000Y134000D02*
X282000Y168000D01*
X346000Y170000D02*
X354000Y178000D01*
X244000Y170000D02*
X346000D01*
X216043Y142043D02*
X244000Y170000D01*
X216043Y115932D02*
Y142043D01*
X182000Y0D02*
Y41000D01*
X200000Y59000D01*
X351000Y97000D02*
X354000D01*
X347000Y101000D02*
X351000Y97000D01*
X261000Y0D02*
Y39000D01*
X257000Y43000D02*
X261000Y39000D01*
X256000Y0D02*
Y35000D01*
X248000Y43000D02*
X256000Y35000D01*
X198000Y14000D02*
Y28000D01*
X212000Y42000D01*
X193000Y0D02*
X204000Y11000D01*
Y19000D01*
Y27000D01*
X212000Y35000D01*
X225000Y0D02*
Y21000D01*
X221000Y25000D02*
X225000Y21000D01*
X227000Y0D02*
Y16000D01*
Y21000D01*
X231000Y25000D01*
D21*
X237000Y110000D02*
D03*
X248000Y134000D02*
D03*
X206000Y116000D02*
D03*
X216043Y115932D02*
D03*
X172000Y108000D02*
D03*
X176000Y81000D02*
D03*
X175000Y90000D02*
D03*
X164000Y86000D02*
D03*
X157415Y78307D02*
D03*
X180000Y57000D02*
D03*
X176000Y44000D02*
D03*
X200000Y59000D02*
D03*
X285000Y101000D02*
D03*
X272000Y87000D02*
D03*
X347000Y101000D02*
D03*
X283000Y55000D02*
D03*
X275000D02*
D03*
X266000Y43000D02*
D03*
X257000D02*
D03*
X248000D02*
D03*
X198000Y14000D02*
D03*
X221000Y25000D02*
D03*
X231000D02*
D03*
X212000Y35000D02*
D03*
Y42000D02*
D03*
M02*
