M48
;Layer_Color=9474304
;FILE_FORMAT=2:5
INCH,LZ
;TYPE=PLATED
T1F00S00C0.02800
%
T01
X0198Y0014
X0212Y0035
Y0042
X0176Y0044
X0221Y0025
X0231
X0248Y0043
X0257
X0266
X0275Y0055
X0283
X0272Y0087
X0285Y0101
X0237Y011
X0216043Y0115932
X0248Y0134
X0347Y0101
X0206Y0116
X0172Y0108
X0175Y009
X0176Y0081
X0164Y0086
X0157415Y0078307
X018Y0057
X02Y0059
M30
