G04*
G04 #@! TF.GenerationSoftware,Altium Limited,Altium Designer,21.1.1 (26)*
G04*
G04 Layer_Color=128*
%FSLAX25Y25*%
%MOIN*%
G70*
G04*
G04 #@! TF.SameCoordinates,803D71E2-4EB1-4650-8D60-E64228E98B9D*
G04*
G04*
G04 #@! TF.FilePolarity,Positive*
G04*
G01*
G75*
%ADD25C,0.00200*%
D25*
X235600Y110000D02*
X238400D01*
X237000Y108600D02*
Y111400D01*
X246600Y134000D02*
X249400D01*
X248000Y132600D02*
Y135400D01*
X204600Y116000D02*
X207400D01*
X206000Y114600D02*
Y117400D01*
X214643Y115932D02*
X217443D01*
X216043Y114532D02*
Y117332D01*
X170600Y108000D02*
X173400D01*
X172000Y106600D02*
Y109400D01*
X174600Y81000D02*
X177400D01*
X176000Y79600D02*
Y82400D01*
X173600Y90000D02*
X176400D01*
X175000Y88600D02*
Y91400D01*
X162600Y86000D02*
X165400D01*
X164000Y84600D02*
Y87400D01*
X156015Y78307D02*
X158815D01*
X157415Y76907D02*
Y79707D01*
X178600Y57000D02*
X181400D01*
X180000Y55600D02*
Y58400D01*
X174600Y44000D02*
X177400D01*
X176000Y42600D02*
Y45400D01*
X198600Y59000D02*
X201400D01*
X200000Y57600D02*
Y60400D01*
X283600Y101000D02*
X286400D01*
X285000Y99600D02*
Y102400D01*
X270600Y87000D02*
X273400D01*
X272000Y85600D02*
Y88400D01*
X345600Y101000D02*
X348400D01*
X347000Y99600D02*
Y102400D01*
X281600Y55000D02*
X284400D01*
X283000Y53600D02*
Y56400D01*
X273600Y55000D02*
X276400D01*
X275000Y53600D02*
Y56400D01*
X264600Y43000D02*
X267400D01*
X266000Y41600D02*
Y44400D01*
X255600Y43000D02*
X258400D01*
X257000Y41600D02*
Y44400D01*
X246600Y43000D02*
X249400D01*
X248000Y41600D02*
Y44400D01*
X196600Y14000D02*
X199400D01*
X198000Y12600D02*
Y15400D01*
X219600Y25000D02*
X222400D01*
X221000Y23600D02*
Y26400D01*
X229600Y25000D02*
X232400D01*
X231000Y23600D02*
Y26400D01*
X210600Y35000D02*
X213400D01*
X212000Y33600D02*
Y36400D01*
X210600Y42000D02*
X213400D01*
X212000Y40600D02*
Y43400D01*
M02*
