G04*
G04 #@! TF.GenerationSoftware,Altium Limited,Altium Designer,21.1.1 (26)*
G04*
G04 Layer_Color=2752767*
%FSLAX25Y25*%
%MOIN*%
G70*
G04*
G04 #@! TF.SameCoordinates,803D71E2-4EB1-4650-8D60-E64228E98B9D*
G04*
G04*
G04 #@! TF.FilePolarity,Positive*
G04*
G01*
G75*
%ADD25C,0.00200*%
D25*
X236200Y109200D02*
Y110800D01*
X237800D01*
Y109200D01*
X236200D01*
X247200Y133200D02*
Y134800D01*
X248800D01*
Y133200D01*
X247200D01*
X205200Y115200D02*
Y116800D01*
X206800D01*
Y115200D01*
X205200D01*
X215243Y115132D02*
Y116732D01*
X216843D01*
Y115132D01*
X215243D01*
X171200Y107200D02*
Y108800D01*
X172800D01*
Y107200D01*
X171200D01*
X175200Y80200D02*
Y81800D01*
X176800D01*
Y80200D01*
X175200D01*
X174200Y89200D02*
Y90800D01*
X175800D01*
Y89200D01*
X174200D01*
X163200Y85200D02*
Y86800D01*
X164800D01*
Y85200D01*
X163200D01*
X156615Y77507D02*
Y79107D01*
X158215D01*
Y77507D01*
X156615D01*
X179200Y56200D02*
Y57800D01*
X180800D01*
Y56200D01*
X179200D01*
X175200Y43200D02*
Y44800D01*
X176800D01*
Y43200D01*
X175200D01*
X199200Y58200D02*
Y59800D01*
X200800D01*
Y58200D01*
X199200D01*
X284200Y100200D02*
Y101800D01*
X285800D01*
Y100200D01*
X284200D01*
X271200Y86200D02*
Y87800D01*
X272800D01*
Y86200D01*
X271200D01*
X346200Y100200D02*
Y101800D01*
X347800D01*
Y100200D01*
X346200D01*
X282200Y54200D02*
Y55800D01*
X283800D01*
Y54200D01*
X282200D01*
X274200D02*
Y55800D01*
X275800D01*
Y54200D01*
X274200D01*
X265200Y42200D02*
Y43800D01*
X266800D01*
Y42200D01*
X265200D01*
X256200D02*
Y43800D01*
X257800D01*
Y42200D01*
X256200D01*
X247200D02*
Y43800D01*
X248800D01*
Y42200D01*
X247200D01*
X197200Y13200D02*
Y14800D01*
X198800D01*
Y13200D01*
X197200D01*
X220200Y24200D02*
Y25800D01*
X221800D01*
Y24200D01*
X220200D01*
X230200D02*
Y25800D01*
X231800D01*
Y24200D01*
X230200D01*
X211200Y34200D02*
Y35800D01*
X212800D01*
Y34200D01*
X211200D01*
Y41200D02*
Y42800D01*
X212800D01*
Y41200D01*
X211200D01*
M02*
